<svg preserveAspectRatio="none" width="100%" height="100%" overflow="visible" style="display: block;" viewBox="0 0 248.222 190.613" fill="none" xmlns="http://www.w3.org/2000/svg">
<g id="Group 1171277894">
<g id="Black">
<path id="Vector" d="M225.872 6.27139C225.717 6.3845 223.504 8.73243 220.947 11.4904C216.515 16.2825 216.299 16.5226 216.145 16.8844C215.854 17.5758 216.008 18.3459 216.543 18.8825C216.806 19.1493 217.294 19.3897 217.608 19.4098C217.717 19.4167 218.859 19.399 220.145 19.3667L222.487 19.3182L223.851 22.2737C224.741 24.1925 225.259 25.2716 225.341 25.3586C225.966 25.9978 226.666 26.3101 227.668 26.3933C229.398 26.5336 231.251 26.3387 233.076 25.833C234.18 25.5218 235.989 24.7059 236.953 24.0846C238.545 23.0494 239.907 21.7943 240.953 20.4021C241.554 19.5963 241.783 18.8644 241.718 17.9734C241.707 17.8537 241.241 16.7514 240.392 14.8139L239.08 11.8351L239.706 11.1546C240.056 10.7854 240.35 10.4723 240.376 10.4606C240.397 10.4513 240.666 11.0078 240.971 11.6976L241.538 12.9537L241.365 13.2184C241.108 13.6142 241.073 14.0341 241.265 14.5138C241.439 14.97 241.607 15.162 241.987 15.3701L242.273 15.5211L242.208 15.7495C242.066 16.2362 242.098 16.3897 242.576 17.4494C242.835 18.0232 243.054 18.4533 243.113 18.5013C243.329 18.6648 243.527 18.6194 244.581 18.1438C245.972 17.5167 245.969 17.5242 245.388 16.2371C244.957 15.2808 244.755 15.0113 244.338 14.8322L244.064 14.707L244.152 14.406C244.246 14.09 244.218 13.6422 244.09 13.3579C243.892 12.9185 243.31 12.4967 242.874 12.4691L242.689 12.4592L242.012 10.9296L241.338 9.39255L241.757 8.94233C242.367 8.28148 242.485 8.11617 242.593 7.77531C242.752 7.28677 242.731 6.96618 242.501 6.45442C242.347 6.11326 242.251 5.96984 242.087 5.82621C241.783 5.56532 241.338 5.38004 240.966 5.36767C240.107 5.3257 227.36 5.66853 227.032 5.74171C226.579 5.84032 226.238 5.99418 225.872 6.27139ZM234.122 6.78673C238.405 6.68398 240.965 6.64933 241.085 6.69473C241.338 6.78606 241.482 7.10655 241.383 7.35639C241.338 7.4764 239.62 9.37714 236.755 12.4731L232.2 17.4074L231.709 17.6289L231.218 17.8503L224.504 17.998C220.3 18.0963 217.725 18.1252 217.605 18.0798C217.352 17.9885 217.208 17.668 217.307 17.4182C217.352 17.2982 219.086 15.3904 221.98 12.2627L226.58 7.28952L226.962 7.11702L227.35 6.94218L234.122 6.78673ZM227.631 19.1941C229.724 19.1459 231.448 19.0778 231.658 19.0329C232.121 18.9296 232.411 18.799 232.795 18.52C233.028 18.3466 236.42 14.7515 237.963 13.0417L238.141 12.8432L239.296 15.4452L240.451 18.0471L240.439 18.407C240.424 18.9115 240.254 19.2245 239.541 20.0995C238.156 21.7877 236.562 23.0106 234.546 23.9198C232.53 24.829 230.616 25.2067 228.406 25.1335C227.25 25.0949 226.909 25.0127 226.513 24.6872L226.235 24.4579L225.047 21.8647C224.396 20.4352 223.885 19.2726 223.917 19.2765C223.943 19.2775 225.619 19.243 227.631 19.1941ZM242.762 13.7514C242.972 13.8309 242.98 14.1383 242.773 14.2315C242.556 14.3295 242.366 14.1416 242.451 13.9166C242.5 13.7764 242.635 13.7032 242.762 13.7514ZM243.853 16.0462C243.922 16.1023 244.055 16.3158 244.146 16.5173L244.316 16.8947L244.058 17.0113L243.8 17.1278L243.594 16.6729C243.462 16.3783 243.401 16.188 243.423 16.128C243.48 15.978 243.715 15.9341 243.853 16.0462Z" fill="var(--fill-0, #A6C4F7)"/>
</g>
<g id="Union">
<path d="M18.8338 30.9899C19.2279 30.9899 19.4088 31.0225 19.6736 31.1452C20.2488 31.4166 20.5397 31.7915 21.1795 33.0905C21.4961 33.7302 21.865 34.3891 22.0008 34.5573C22.3821 35.0226 22.8543 35.1971 24.1922 35.3522C25.6134 35.5202 26.2015 35.7401 26.6668 36.2633C27.0546 36.7028 27.1515 37.0978 27.1062 38.0026C27.0868 38.3904 27.0093 38.985 26.9383 39.321C26.8543 39.6829 26.8025 40.1611 26.8025 40.5036C26.8025 41.0463 26.8159 41.0979 27.0291 41.4274C27.1519 41.6213 27.6818 42.2096 28.2117 42.7331C29.3878 43.9027 29.5496 44.1744 29.5496 44.9821C29.5496 45.441 29.5238 45.5511 29.3299 45.9518C29.1425 46.3331 28.9618 46.5532 28.1863 47.3092C27.6822 47.8069 27.1588 48.3692 27.0359 48.5631C26.8162 48.8927 26.8025 48.9313 26.8025 49.4674C26.8025 49.8229 26.8671 50.3211 26.9705 50.8317C27.1967 51.9174 27.2095 52.7961 27.0027 53.2614C26.7506 53.8301 26.0204 54.3988 25.4129 54.4958C25.2903 54.5152 25.1874 54.5605 25.1873 54.5993C25.1873 54.6316 25.7812 55.7758 26.5115 57.1266C27.7395 59.4081 27.8367 59.6213 27.8367 59.9186C27.8366 60.4679 27.423 60.9266 26.8543 60.9977C26.6987 61.0236 25.8138 61.0559 24.8836 61.0817L23.1834 61.1266L22.0594 62.4909C21.4389 63.2406 20.8434 63.9063 20.74 63.9645C20.6108 64.0419 20.4107 64.0807 20.159 64.0807C19.4868 64.0807 19.5382 64.1454 17.7156 60.8493L16.1004 57.9147L15.7449 57.7467C15.2214 57.5011 14.5617 57.514 14.0447 57.779L13.6697 57.9733L12.073 60.8747C10.2957 64.1126 10.3216 64.0807 9.68827 64.0807C9.49443 64.0807 9.2424 64.0357 9.13261 63.984C8.99681 63.9193 8.50542 63.3824 7.77518 62.5036L6.63847 61.1266L5.00272 61.0817C3.01878 61.03 2.74756 61.0039 2.48905 60.8229C2.12713 60.5773 2.01737 60.3639 2.01737 59.9245C2.01738 59.5242 2.03081 59.5038 3.35526 57.0358L4.69315 54.5544L4.35624 54.4508C3.5358 54.1924 2.98674 53.7334 2.79276 53.152C2.62472 52.6544 2.65003 51.8202 2.85038 50.8249C2.95378 50.3273 3.01833 49.8168 3.01835 49.4743C3.01835 48.9702 2.99912 48.8927 2.81815 48.5954C2.71475 48.4209 2.23717 47.897 1.76542 47.4381C0.511589 46.2231 0.168473 45.6023 0.265418 44.7751C0.343042 44.1226 0.614817 43.7155 1.63554 42.7077C2.14612 42.2036 2.66996 41.6281 2.79276 41.4342C3.00602 41.0982 3.01835 41.0528 3.01835 40.5036C3.01835 40.1482 2.96718 39.6829 2.87675 39.2887C2.77334 38.8105 2.73417 38.4288 2.73417 37.776C2.72771 36.923 2.73424 36.8969 2.92167 36.5544C3.35466 35.7789 3.94307 35.5338 6.10136 35.2624C6.67646 35.1913 7.29061 34.997 7.54276 34.8161C7.80126 34.6222 8.22819 33.9696 8.48026 33.3815C8.99084 32.1988 9.57279 31.4227 10.1609 31.1383C10.4449 31.0028 10.555 30.9832 11.0652 31.0026C11.634 31.0284 11.6728 31.0351 12.4549 31.4294C12.9006 31.649 13.4433 31.9266 13.6697 32.0495C13.8958 32.1722 14.2706 32.3145 14.4969 32.3727C14.8782 32.4697 14.9498 32.4697 15.3182 32.3727C15.7639 32.2629 16.0288 32.1399 16.8816 31.6618C17.8123 31.1383 18.2392 30.9899 18.8338 30.9899ZM6.60624 54.8063C5.80483 54.6124 6.01717 54.3664 4.44022 57.32L3.04472 59.9186L5.04862 60.0026C6.15313 60.0478 7.109 60.1125 7.18729 60.1383C7.25839 60.1642 7.84042 60.8299 8.48026 61.612C9.11775 62.3911 9.6526 63.0351 9.67557 63.0397C9.69496 63.0397 10.1026 62.3095 10.5808 61.4176C11.0591 60.5194 11.5689 59.5689 11.7176 59.2975L11.9832 58.8004L11.7176 58.8971C11.5688 58.9488 11.2333 59.0006 10.9685 59.0006C10.5614 59.0071 10.4253 58.9809 10.115 58.8258C9.55292 58.5479 9.22942 58.1346 8.64139 56.9391C7.83364 55.2848 7.5947 55.0389 6.60624 54.8063ZM23.9139 54.6706C23.888 54.6641 23.6552 54.6966 23.4031 54.7419C22.9186 54.8259 22.3956 55.0326 22.1951 55.2135C21.956 55.4268 21.555 56.0793 21.2771 56.7126C20.773 57.8436 20.2747 58.5092 19.7254 58.7936C19.4087 58.9615 18.6597 59.0199 18.2332 58.9167C18.0732 58.8718 17.9253 58.8522 17.9099 58.8581C17.8841 58.8839 20.0471 62.8434 20.1326 62.9303C20.1778 62.9756 20.5919 62.5227 21.3416 61.6178C21.9749 60.8553 22.5502 60.2025 22.6277 60.1637C22.7127 60.1185 23.5338 60.0605 24.7674 60.0153C25.8659 59.9701 26.7707 59.9309 26.7771 59.9245C26.7684 59.9017 26.1449 58.7256 25.3748 57.2946C24.5999 55.861 23.9472 54.679 23.9139 54.6706ZM19.2537 32.1403C18.9305 31.9272 18.4002 32.0496 17.5408 32.5407C15.3177 33.8073 14.4651 33.8138 12.3582 32.5729C11.893 32.3015 11.2465 32.0886 10.8846 32.0885C10.4645 32.0885 10.16 32.4632 9.55253 33.7233C8.88683 35.0999 8.48008 35.624 7.83378 35.9342C7.31682 36.1862 6.80625 36.3152 5.92753 36.4186C4.7388 36.5543 4.09869 36.7742 3.8787 37.11C3.71712 37.3621 3.73657 38.2095 3.93046 39.0368C4.15007 39.9673 4.15011 41.2338 3.93046 41.654C3.6332 42.2291 3.26439 42.6683 2.48905 43.4049C0.957333 44.8526 0.956684 45.1961 2.52714 46.6696C3.7163 47.7747 4.04024 48.3108 4.09843 49.2672C4.12428 49.7843 4.1045 50.0561 3.95585 50.8317C3.74262 51.9819 3.72374 52.6022 3.89823 52.9059C4.12447 53.2936 4.64788 53.4753 5.95975 53.611C7.30382 53.7596 7.96933 54.0308 8.55741 54.6706C8.88053 55.026 9.06212 55.3165 9.51444 56.234C9.90852 57.0351 10.1475 57.449 10.3543 57.6559L10.6385 57.9538L11.0262 57.9274C11.3299 57.908 11.5436 57.8312 12.0799 57.5534C13.5793 56.7713 13.8508 56.6545 14.4002 56.5446C14.9495 56.4283 14.9689 56.4288 15.531 56.571C16.1127 56.7131 16.5205 56.8933 17.658 57.5202C18.6855 58.0824 19.0861 58.1022 19.532 57.611C19.6614 57.4621 20.0041 56.8678 20.3142 56.2282C20.7731 55.2911 20.9282 55.0391 21.2771 54.6579C21.6261 54.2766 21.7808 54.1725 22.1814 54.0045C22.6403 53.8107 22.8667 53.7653 24.5984 53.5133C25.3286 53.4099 25.6974 53.2486 25.9236 52.945C26.1175 52.6865 26.098 52.0013 25.8719 50.8639C25.7168 50.0885 25.6911 49.8621 25.7234 49.2936C25.7816 48.3048 25.969 47.981 27.2293 46.7272C28.9096 45.0533 28.9093 44.9044 27.2224 43.237C26.3632 42.3842 26.2142 42.2034 25.9881 41.7575C25.7425 41.2469 25.7361 41.2401 25.7361 40.4645C25.7361 39.896 25.7753 39.5148 25.8787 39.069C25.9563 38.7329 26.0403 38.235 26.0662 37.9635C26.0985 37.5499 26.0852 37.4271 25.9754 37.1686C25.859 36.9101 25.7877 36.8453 25.4969 36.7096C25.1802 36.5675 24.7533 36.4894 23.2996 36.2956C22.6792 36.2115 21.8263 35.8886 21.5291 35.6237C21.1607 35.3006 20.7661 34.6999 20.2879 33.7047C19.829 32.7482 19.5575 32.3406 19.2537 32.1403ZM14.1355 35.3844C16.0034 35.2487 17.9747 35.6556 19.4871 36.4958C22.027 37.9047 23.7203 40.1735 24.3601 43.0172C24.4894 43.6052 24.5086 43.8576 24.5086 45.0143C24.5021 46.1255 24.4829 46.4358 24.3601 46.9655C23.4941 50.8756 20.5275 53.7586 16.6238 54.4889C15.7319 54.6569 14.0899 54.657 13.198 54.4889C9.28811 53.7585 6.33479 50.8819 5.45585 46.9655C5.33959 46.4358 5.31973 46.1255 5.31327 45.0143C5.31327 43.5472 5.41061 42.9327 5.81132 41.7887C7.07813 38.1955 10.3677 35.6688 14.1355 35.3844ZM16.1394 36.5153C13.5802 36.1211 10.9363 36.9737 9.02323 38.7897C7.70483 40.0499 6.89052 41.511 6.50272 43.3463C6.31529 44.2059 6.30208 45.6735 6.46366 46.5202C7.08413 49.6416 9.24928 52.1303 12.2156 53.1256C13.1204 53.4294 13.8838 53.5514 14.8855 53.5514C15.8936 53.5514 16.6951 53.4293 17.6062 53.1256C20.5727 52.1368 22.7377 49.6482 23.3582 46.5202C23.5198 45.68 23.5066 44.2128 23.3191 43.3532C23.164 42.61 22.874 41.7374 22.5896 41.1686C22.0274 40.0441 20.9346 38.771 19.907 38.0407C18.8019 37.2522 17.4772 36.7157 16.1394 36.5153ZM14.5818 39.1911C14.7757 39.0361 15.0475 39.036 15.2478 39.1911C15.3385 39.269 15.6997 39.9223 16.1326 40.8268L16.8631 42.3385L18.5174 42.5524C19.4351 42.6687 20.2501 42.7982 20.3406 42.8434C20.5472 42.9405 20.6897 43.2309 20.6316 43.444C20.6122 43.5409 20.0884 44.1032 19.3582 44.8141L18.1238 46.0231L18.3953 47.5739C18.5375 48.427 18.6599 49.235 18.6599 49.3708C18.6599 49.6615 18.4272 49.9264 18.1687 49.9264C18.0717 49.9264 17.3288 49.5771 16.5017 49.1442C15.6843 48.713 14.9818 48.359 14.9441 48.3561C14.9054 48.3561 14.2389 48.6915 13.4568 49.1051C12.6755 49.5119 11.959 49.8678 11.8611 49.8942C11.6285 49.9524 11.305 49.7776 11.2469 49.5514C11.2211 49.4411 11.3117 48.7368 11.4861 47.7096L11.7703 46.0417L10.491 44.8014C9.36648 43.7027 9.21795 43.5345 9.2244 43.36C9.2244 43.0821 9.39855 42.8881 9.70878 42.817C9.85131 42.7911 10.6396 42.6687 11.4666 42.5524L12.9656 42.3327L13.6961 40.8268C14.1226 39.9285 14.4849 39.2622 14.5818 39.1911ZM14.3357 41.9967C14.0195 42.6549 13.71 43.2229 13.6385 43.2565C13.5738 43.2888 12.9398 43.3992 12.2224 43.5026L10.9305 43.6833L11.8611 44.5876C12.3712 45.0912 12.8163 45.563 12.8494 45.6413C12.8817 45.7382 12.8242 46.2103 12.6756 47.0504C12.5463 47.7485 12.4556 48.3305 12.4685 48.3434C12.4871 48.3595 12.9888 48.1087 13.5926 47.8004C14.1928 47.4842 14.7482 47.2058 14.8269 47.1794C14.9303 47.1535 15.2863 47.3022 16.1717 47.7545C16.8614 48.1155 17.3643 48.3418 17.367 48.2917C17.367 48.2464 17.2835 47.716 17.1736 47.1149C17.0702 46.5074 16.9793 45.9193 16.9793 45.7965C16.9793 45.5962 17.0699 45.4861 17.9617 44.6266L18.9441 43.6833L17.6521 43.5026C16.9412 43.4056 16.3006 43.2824 16.2166 43.2243C16.1258 43.1718 15.8413 42.6803 15.4861 41.9635L14.9109 40.8004L14.3357 41.9967Z" fill="var(--fill-0, #A6C4F7)"/>
<path d="M18.8338 30.9899V30.7399H18.8338L18.8338 30.9899ZM19.6736 31.1452L19.7803 30.9191L19.7787 30.9183L19.6736 31.1452ZM21.1795 33.0905L20.9552 33.2009L20.9554 33.2014L21.1795 33.0905ZM22.0008 34.5573L21.8062 34.7143L21.8074 34.7157L22.0008 34.5573ZM24.1922 35.3522L24.2215 35.1039L24.221 35.1039L24.1922 35.3522ZM26.6668 36.2633L26.8542 36.0979L26.8536 36.0972L26.6668 36.2633ZM27.1062 38.0026L27.3559 38.0151V38.0151L27.1062 38.0026ZM26.9383 39.321L27.1818 39.3775L27.1829 39.3727L26.9383 39.321ZM26.8025 40.5036H26.5525V40.5036L26.8025 40.5036ZM27.0291 41.4274L27.2403 41.2936L27.239 41.2916L27.0291 41.4274ZM28.2117 42.7331L28.388 42.5558L28.3874 42.5552L28.2117 42.7331ZM29.5496 44.9821H29.7996V44.9821L29.5496 44.9821ZM29.3299 45.9518L29.5542 46.0621L29.5549 46.0607L29.3299 45.9518ZM28.1863 47.3092L28.0118 47.1302L28.0107 47.1313L28.1863 47.3092ZM27.0359 48.5631L27.244 48.7019L27.2471 48.6969L27.0359 48.5631ZM26.8025 49.4674L26.5525 49.4674V49.4674H26.8025ZM26.9705 50.8317L26.7255 50.8813L26.7258 50.8827L26.9705 50.8317ZM27.0027 53.2614L26.7743 53.1598L26.7742 53.1601L27.0027 53.2614ZM25.4129 54.4958L25.452 54.7427L25.4523 54.7426L25.4129 54.4958ZM25.1873 54.5993L24.9373 54.5984V54.5993H25.1873ZM26.5115 57.1266L26.7317 57.0081L26.7314 57.0077L26.5115 57.1266ZM27.8367 59.9186L28.0867 59.9186V59.9186H27.8367ZM26.8543 60.9977L26.8233 60.7494L26.8133 60.7511L26.8543 60.9977ZM24.8836 61.0817L24.8902 61.3316L24.8905 61.3316L24.8836 61.0817ZM23.1834 61.1266L23.1768 60.8767L23.0629 60.8797L22.9904 60.9676L23.1834 61.1266ZM22.0594 62.4909L22.252 62.6503L22.2523 62.6498L22.0594 62.4909ZM20.74 63.9645L20.6174 63.7465L20.6116 63.75L20.74 63.9645ZM20.159 64.0807V64.3307H20.159L20.159 64.0807ZM17.7156 60.8493L17.4966 60.9698L17.4968 60.9702L17.7156 60.8493ZM16.1004 57.9147L16.3194 57.7942L16.2804 57.7232L16.2072 57.6887L16.1004 57.9147ZM15.7449 57.7467L15.8517 57.5207L15.8511 57.5204L15.7449 57.7467ZM14.0447 57.779L13.9307 57.5565L13.9297 57.557L14.0447 57.779ZM13.6697 57.9733L13.5547 57.7513L13.4873 57.7863L13.4507 57.8528L13.6697 57.9733ZM12.073 60.8747L11.854 60.7541L11.8539 60.7544L12.073 60.8747ZM9.68827 64.0807L9.68819 64.3307H9.68827V64.0807ZM9.13261 63.984L9.02502 64.2097L9.02616 64.2102L9.13261 63.984ZM7.77518 62.5036L7.58239 62.6627L7.5829 62.6633L7.77518 62.5036ZM6.63847 61.1266L6.83126 60.9675L6.75892 60.8798L6.64533 60.8767L6.63847 61.1266ZM5.00272 61.0817L5.00959 60.8318L5.00924 60.8318L5.00272 61.0817ZM2.48905 60.8229L2.63243 60.6181L2.62943 60.616L2.48905 60.8229ZM2.01737 59.9245L1.76737 59.9245V59.9245H2.01737ZM3.35526 57.0358L3.13521 56.9172L3.13498 56.9176L3.35526 57.0358ZM4.69315 54.5544L4.91321 54.673L5.05778 54.4048L4.76658 54.3154L4.69315 54.5544ZM4.35624 54.4508L4.28111 54.6893L4.28281 54.6898L4.35624 54.4508ZM2.79276 53.152L3.02991 53.0729L3.02962 53.072L2.79276 53.152ZM2.85038 50.8249L2.6056 50.774L2.6053 50.7755L2.85038 50.8249ZM3.01835 49.4743L3.26835 49.4743V49.4743H3.01835ZM2.81815 48.5954L2.60307 48.7228L2.6046 48.7254L2.81815 48.5954ZM1.76542 47.4381L1.93973 47.2589L1.9394 47.2586L1.76542 47.4381ZM0.265418 44.7751L0.0171686 44.7455L0.0171173 44.746L0.265418 44.7751ZM1.63554 42.7077L1.45989 42.5298L1.45989 42.5298L1.63554 42.7077ZM2.79276 41.4342L2.58168 41.3003L2.58156 41.3005L2.79276 41.4342ZM3.01835 40.5036L3.26835 40.5036V40.5036H3.01835ZM2.87675 39.2887L2.63237 39.3416L2.63308 39.3446L2.87675 39.2887ZM2.73417 37.776H2.98418L2.98416 37.7741L2.73417 37.776ZM2.92167 36.5544L2.70338 36.4325L2.70235 36.4343L2.92167 36.5544ZM6.10136 35.2624L6.07069 35.0142L6.07016 35.0143L6.10136 35.2624ZM7.54276 34.8161L7.68855 35.0192L7.69276 35.0161L7.54276 34.8161ZM8.48026 33.3815L8.25074 33.2824L8.25048 33.283L8.48026 33.3815ZM10.1609 31.1383L10.0533 30.9127L10.0521 30.9133L10.1609 31.1383ZM11.0652 31.0026L11.0766 30.7528L11.0747 30.7528L11.0652 31.0026ZM12.4549 31.4294L12.3423 31.6526L12.3444 31.6536L12.4549 31.4294ZM13.6697 32.0495L13.789 31.8298L13.789 31.8298L13.6697 32.0495ZM14.4969 32.3727L14.4346 32.6148L14.4353 32.615L14.4969 32.3727ZM15.3182 32.3727L15.2583 32.1299L15.2545 32.1309L15.3182 32.3727ZM16.8816 31.6618L17.0039 31.8798L17.0042 31.8797L16.8816 31.6618ZM6.60624 54.8063L6.54745 55.0493L6.54897 55.0497L6.60624 54.8063ZM4.44022 57.32L4.66047 57.4383L4.66076 57.4377L4.44022 57.32ZM3.04472 59.9186L2.82446 59.8003L2.63578 60.1517L3.03425 60.1684L3.04472 59.9186ZM5.04862 60.0026L5.03815 60.2524L5.03839 60.2524L5.04862 60.0026ZM7.18729 60.1383L7.27277 59.9033L7.26573 59.901L7.18729 60.1383ZM8.48026 61.612L8.28677 61.7703V61.7703L8.48026 61.612ZM9.67557 63.0397L9.62681 63.2849L9.65096 63.2897H9.67557V63.0397ZM10.5808 61.4176L10.8012 61.5358L10.8015 61.5351L10.5808 61.4176ZM11.7176 59.2975L11.9369 59.4176L11.9381 59.4153L11.7176 59.2975ZM11.9832 58.8004L12.2037 58.9183L12.5116 58.3421L11.8977 58.5655L11.9832 58.8004ZM11.7176 58.8971L11.7995 59.1333L11.8031 59.132L11.7176 58.8971ZM10.9685 59.0006L10.9685 58.7506L10.9646 58.7507L10.9685 59.0006ZM10.115 58.8258L10.2268 58.6022L10.2258 58.6017L10.115 58.8258ZM8.64139 56.9391L8.41674 57.0488L8.41706 57.0495L8.64139 56.9391ZM23.9139 54.6706L23.9752 54.4282L23.9745 54.428L23.9139 54.6706ZM23.4031 54.7419L23.4458 54.9882L23.4473 54.9879L23.4031 54.7419ZM22.1951 55.2135L22.3615 55.4001L22.3626 55.3991L22.1951 55.2135ZM21.2771 56.7126L21.5055 56.8143L21.5061 56.813L21.2771 56.7126ZM19.7254 58.7936L19.6104 58.5716L19.6083 58.5727L19.7254 58.7936ZM18.2332 58.9167L18.1657 59.1575L18.1744 59.1596L18.2332 58.9167ZM17.9099 58.8581L17.8202 58.6247L17.7707 58.6438L17.7332 58.6813L17.9099 58.8581ZM20.1326 62.9303L19.9545 63.1057L19.9558 63.1071L20.1326 62.9303ZM21.3416 61.6178L21.1493 61.4581L21.1491 61.4583L21.3416 61.6178ZM22.6277 60.1637L22.7396 60.3874L22.7452 60.3844L22.6277 60.1637ZM24.7674 60.0153L24.7765 60.2651L24.7777 60.2651L24.7674 60.0153ZM26.7771 59.9245L26.9539 60.1012L27.0686 59.9866L27.0106 59.8351L26.7771 59.9245ZM25.3748 57.2946L25.5949 57.1761L25.5947 57.1757L25.3748 57.2946ZM19.2537 32.1403L19.3913 31.9316L19.3913 31.9316L19.2537 32.1403ZM17.5408 32.5407L17.6646 32.7579L17.6648 32.7577L17.5408 32.5407ZM12.3582 32.5729L12.4851 32.3575L12.4842 32.357L12.3582 32.5729ZM10.8846 32.0885L10.8846 31.8385H10.8846V32.0885ZM9.55253 33.7233L9.77759 33.8321L9.77773 33.8319L9.55253 33.7233ZM7.83378 35.9342L7.72559 35.7088L7.72423 35.7095L7.83378 35.9342ZM5.92753 36.4186L5.95588 36.667L5.95674 36.6669L5.92753 36.4186ZM3.8787 37.11L3.66956 36.973L3.66823 36.9751L3.8787 37.11ZM3.93046 39.0368L3.68705 39.0938L3.68714 39.0942L3.93046 39.0368ZM3.93046 41.654L3.70891 41.5381L3.70837 41.5392L3.93046 41.654ZM2.48905 43.4049L2.66078 43.5866L2.66124 43.5862L2.48905 43.4049ZM2.52714 46.6696L2.35607 46.8519L2.35695 46.8527L2.52714 46.6696ZM4.09843 49.2672L4.34813 49.2548L4.34796 49.2521L4.09843 49.2672ZM3.95585 50.8317L3.71031 50.7846L3.71004 50.7861L3.95585 50.8317ZM3.89823 52.9059L3.68145 53.0304L3.6823 53.0319L3.89823 52.9059ZM5.95975 53.611L5.98724 53.3625L5.98548 53.3623L5.95975 53.611ZM8.55741 54.6706L8.7424 54.5024L8.74146 54.5014L8.55741 54.6706ZM9.51444 56.234L9.73877 56.1237L9.73868 56.1235L9.51444 56.234ZM10.3543 57.6559L10.5352 57.4833L10.5311 57.4792L10.3543 57.6559ZM10.6385 57.9538L10.4576 58.1263L10.5385 58.2111L10.6554 58.2032L10.6385 57.9538ZM11.0262 57.9274L11.0102 57.6779L11.0092 57.678L11.0262 57.9274ZM12.0799 57.5534L12.1949 57.7754L12.1955 57.775L12.0799 57.5534ZM14.4002 56.5446L14.4492 56.7897L14.452 56.7892L14.4002 56.5446ZM15.531 56.571L15.4698 56.8133L15.4717 56.8138L15.531 56.571ZM17.658 57.5202L17.5373 57.7391L17.538 57.7395L17.658 57.5202ZM19.532 57.611L19.7172 57.7791L19.7207 57.7749L19.532 57.611ZM20.3142 56.2282L20.0897 56.1182L20.0893 56.1191L20.3142 56.2282ZM21.2771 54.6579L21.0927 54.4891L21.0927 54.4891L21.2771 54.6579ZM22.1814 54.0045L22.2781 54.2351L22.2787 54.2348L22.1814 54.0045ZM24.5984 53.5133L24.5634 53.2658L24.5624 53.2659L24.5984 53.5133ZM25.9236 52.945L25.7236 52.795L25.7231 52.7956L25.9236 52.945ZM25.8719 50.8639L26.1171 50.8152L26.117 50.8149L25.8719 50.8639ZM25.7234 49.2936L25.4739 49.2789L25.4738 49.2794L25.7234 49.2936ZM27.2293 46.7272L27.4056 46.9044L27.4057 46.9043L27.2293 46.7272ZM27.2224 43.237L27.0463 43.4144L27.0467 43.4148L27.2224 43.237ZM25.9881 41.7575L25.7627 41.8659L25.7651 41.8706L25.9881 41.7575ZM25.7361 40.4645L25.4861 40.4645V40.4645H25.7361ZM25.8787 39.069L26.1222 39.1255L26.1223 39.1252L25.8787 39.069ZM26.0662 37.9635L26.3151 37.9872L26.3154 37.983L26.0662 37.9635ZM25.9754 37.1686L26.2055 37.0708L26.2034 37.066L25.9754 37.1686ZM25.4969 36.7096L25.6026 36.4831L25.5992 36.4815L25.4969 36.7096ZM23.2996 36.2956L23.266 36.5433L23.2666 36.5434L23.2996 36.2956ZM21.5291 35.6237L21.6954 35.4371L21.6939 35.4357L21.5291 35.6237ZM20.2879 33.7047L20.0625 33.8129L20.0625 33.813L20.2879 33.7047ZM14.1355 35.3844L14.1174 35.1351L14.1167 35.1351L14.1355 35.3844ZM19.4871 36.4958L19.3657 36.7143L19.3658 36.7144L19.4871 36.4958ZM24.3601 43.0172L24.6043 42.9636L24.604 42.9624L24.3601 43.0172ZM24.5086 45.0143L24.7586 45.0158V45.0143H24.5086ZM24.3601 46.9655L24.1166 46.9091L24.1161 46.9114L24.3601 46.9655ZM16.6238 54.4889L16.5778 54.2432L16.5775 54.2432L16.6238 54.4889ZM13.198 54.4889L13.2443 54.2432L13.2439 54.2432L13.198 54.4889ZM5.45585 46.9655L5.21166 47.0191L5.21192 47.0202L5.45585 46.9655ZM5.31327 45.0143H5.06327L5.06327 45.0158L5.31327 45.0143ZM5.81132 41.7887L5.57554 41.7056L5.57537 41.7061L5.81132 41.7887ZM16.1394 36.5153L16.1014 36.7624L16.1024 36.7625L16.1394 36.5153ZM9.02323 38.7897L8.85111 38.6084L8.85048 38.609L9.02323 38.7897ZM6.50272 43.3463L6.74699 43.3996L6.74732 43.398L6.50272 43.3463ZM6.46366 46.5202L6.21808 46.567L6.21846 46.5689L6.46366 46.5202ZM12.2156 53.1256L12.2952 52.8886L12.2951 52.8886L12.2156 53.1256ZM14.8855 53.5514V53.8014H14.8855L14.8855 53.5514ZM17.6062 53.1256L17.6853 53.3628L17.6853 53.3628L17.6062 53.1256ZM23.3582 46.5202L23.6034 46.5688L23.6037 46.5674L23.3582 46.5202ZM23.3191 43.3532L23.0744 43.4043L23.0749 43.4064L23.3191 43.3532ZM22.5896 41.1686L22.8132 41.0568L22.8132 41.0568L22.5896 41.1686ZM19.907 38.0407L19.7618 38.2442L19.7622 38.2445L19.907 38.0407ZM14.5818 39.1911L14.7298 39.3928L14.7379 39.3863L14.5818 39.1911ZM15.2478 39.1911L15.411 39.0012L15.4009 38.9934L15.2478 39.1911ZM16.1326 40.8268L15.9071 40.9347L15.9075 40.9356L16.1326 40.8268ZM16.8631 42.3385L16.638 42.4473L16.6968 42.5691L16.831 42.5865L16.8631 42.3385ZM18.5174 42.5524L18.4853 42.8003L18.4859 42.8004L18.5174 42.5524ZM20.3406 42.8434L20.2288 43.0671L20.2342 43.0697L20.3406 42.8434ZM20.6316 43.444L20.3904 43.3783L20.3882 43.3866L20.3865 43.395L20.6316 43.444ZM19.3582 44.8141L19.1838 44.635L19.1833 44.6355L19.3582 44.8141ZM18.1238 46.0231L17.9489 45.8445L17.8549 45.9366L17.8776 46.0662L18.1238 46.0231ZM18.3953 47.5739L18.6419 47.5328L18.6416 47.5308L18.3953 47.5739ZM18.6599 49.3708L18.9099 49.3708V49.3708H18.6599ZM18.1687 49.9264L18.1686 50.1764H18.1687V49.9264ZM16.5017 49.1442L16.3851 49.3653L16.3858 49.3657L16.5017 49.1442ZM14.9441 48.3561L14.9634 48.1068L14.9538 48.1061H14.9441V48.3561ZM13.4568 49.1051L13.5723 49.3269L13.5737 49.3261L13.4568 49.1051ZM11.8611 49.8942L11.9218 50.1368L11.9262 50.1356L11.8611 49.8942ZM11.2469 49.5514L11.0033 49.6083L11.0047 49.6137L11.2469 49.5514ZM11.4861 47.7096L11.2397 47.6676L11.2396 47.6678L11.4861 47.7096ZM11.7703 46.0417L12.0167 46.0836L12.0389 45.9538L11.9443 45.8622L11.7703 46.0417ZM10.491 44.8014L10.3163 44.9802L10.317 44.9809L10.491 44.8014ZM9.2244 43.36L9.4744 43.3693V43.36H9.2244ZM9.70878 42.817L9.66403 42.5708L9.65293 42.5734L9.70878 42.817ZM11.4666 42.5524L11.5014 42.8L11.5028 42.7998L11.4666 42.5524ZM12.9656 42.3327L13.0019 42.58L13.1328 42.5608L13.1905 42.4418L12.9656 42.3327ZM13.6961 40.8268L13.921 40.9359L13.9219 40.934L13.6961 40.8268ZM14.3357 41.9967L14.1104 41.8884L14.1104 41.8885L14.3357 41.9967ZM13.6385 43.2565L13.5322 43.0301L13.5267 43.0329L13.6385 43.2565ZM12.2224 43.5026L12.2571 43.7502L12.2581 43.75L12.2224 43.5026ZM10.9305 43.6833L10.8958 43.4357L10.3897 43.5064L10.7562 43.8626L10.9305 43.6833ZM11.8611 44.5876L12.0368 44.4096L12.0353 44.4083L11.8611 44.5876ZM12.8494 45.6413L13.0866 45.5622L13.0835 45.5529L13.0796 45.5438L12.8494 45.6413ZM12.6756 47.0504L12.9214 47.096L12.9218 47.094L12.6756 47.0504ZM12.4685 48.3434L12.2918 48.5202L12.2981 48.5266L12.3049 48.5325L12.4685 48.3434ZM13.5926 47.8004L13.7063 48.0231L13.7091 48.0216L13.5926 47.8004ZM14.8269 47.1794L14.7663 46.9368L14.7567 46.9392L14.7472 46.9424L14.8269 47.1794ZM16.1717 47.7545L16.2876 47.533L16.2854 47.5319L16.1717 47.7545ZM17.367 48.2917L17.617 48.3048V48.2917H17.367ZM17.1736 47.1149L16.9271 47.1569L16.9277 47.1599L17.1736 47.1149ZM16.9793 45.7965L16.7293 45.7965V45.7965H16.9793ZM17.9617 44.6266L17.7886 44.4463L17.7882 44.4466L17.9617 44.6266ZM18.9441 43.6833L19.1173 43.8636L19.4887 43.507L18.9788 43.4357L18.9441 43.6833ZM17.6521 43.5026L17.6868 43.255L17.6859 43.2549L17.6521 43.5026ZM16.2166 43.2243L16.3589 43.0187L16.3505 43.0129L16.3417 43.0078L16.2166 43.2243ZM15.4861 41.9635L15.262 42.0744L15.2621 42.0745L15.4861 41.9635ZM14.9109 40.8004L15.135 40.6896L14.9078 40.2301L14.6856 40.6921L14.9109 40.8004ZM18.8338 30.9899V31.2399C19.2044 31.2399 19.3466 31.2692 19.5685 31.372L19.6736 31.1452L19.7787 30.9183C19.471 30.7758 19.2513 30.7399 18.8338 30.7399V30.9899ZM19.6736 31.1452L19.5669 31.3713C19.8209 31.4911 20.0055 31.6284 20.2047 31.8856C20.4122 32.1536 20.6353 32.5515 20.9552 33.2009L21.1795 33.0905L21.4038 32.98C21.0838 32.3305 20.8416 31.8914 20.6 31.5794C20.3499 31.2565 20.1016 31.0707 19.7803 30.9191L19.6736 31.1452ZM21.1795 33.0905L20.9554 33.2014C21.1155 33.5249 21.2889 33.8533 21.4398 34.1228C21.5864 34.3847 21.7227 34.6108 21.8062 34.7143L22.0008 34.5573L22.1953 34.4002C22.1431 34.3355 22.027 34.1481 21.8761 33.8786C21.7295 33.6167 21.5601 33.2958 21.4035 32.9796L21.1795 33.0905ZM22.0008 34.5573L21.8074 34.7157C22.2577 35.2652 22.8248 35.4453 24.1634 35.6005L24.1922 35.3522L24.221 35.1039C22.8839 34.9488 22.5065 34.78 22.1941 34.3988L22.0008 34.5573ZM24.1922 35.3522L24.1628 35.6005C25.5757 35.7675 26.0804 35.9801 26.48 36.4295L26.6668 36.2633L26.8536 36.0972C26.3227 35.5002 25.6512 35.2729 24.2215 35.1039L24.1922 35.3522ZM26.6668 36.2633L26.4793 36.4287C26.6524 36.6249 26.751 36.7988 26.8064 37.0194C26.8642 37.2493 26.8788 37.5442 26.8566 37.9901L27.1062 38.0026L27.3559 38.0151C27.3789 37.5562 27.3677 37.2012 27.2914 36.8975C27.2127 36.5846 27.069 36.3413 26.8542 36.0979L26.6668 36.2633ZM27.1062 38.0026L26.8566 37.9901C26.8378 38.3652 26.7619 38.9467 26.6937 39.2692L26.9383 39.321L27.1829 39.3727C27.2568 39.0233 27.3359 38.4155 27.3559 38.0151L27.1062 38.0026ZM26.9383 39.321L26.6947 39.2644C26.6063 39.6454 26.5525 40.1426 26.5525 40.5036H26.8025H27.0525C27.0525 40.1796 27.1022 39.7203 27.1818 39.3775L26.9383 39.321ZM26.8025 40.5036L26.5525 40.5036C26.5525 40.7661 26.5544 40.9478 26.5931 41.1052C26.6344 41.2732 26.7142 41.401 26.8192 41.5632L27.0291 41.4274L27.239 41.2916C27.1308 41.1244 27.0973 41.0616 27.0786 40.9857C27.0573 40.8992 27.0525 40.7838 27.0525 40.5036L26.8025 40.5036ZM27.0291 41.4274L26.8179 41.5612C26.8927 41.6792 27.0708 41.8904 27.2823 42.1243C27.4995 42.3645 27.7677 42.6459 28.036 42.9109L28.2117 42.7331L28.3874 42.5552C28.1258 42.2968 27.8641 42.0222 27.6532 41.789C27.4365 41.5494 27.2883 41.3695 27.2403 41.2936L27.0291 41.4274ZM28.2117 42.7331L28.0354 42.9103C28.6283 43.4999 28.9385 43.8381 29.1068 44.1211C29.2621 44.3821 29.2996 44.601 29.2996 44.9821L29.5496 44.9821L29.7996 44.9821C29.7996 44.5555 29.7562 44.2347 29.5365 43.8655C29.33 43.5184 28.9713 43.1359 28.388 42.5558L28.2117 42.7331ZM29.5496 44.9821H29.2996C29.2996 45.2108 29.2926 45.3282 29.2687 45.4333C29.2449 45.538 29.2014 45.6433 29.1048 45.8429L29.3299 45.9518L29.5549 46.0607C29.6522 45.8596 29.7186 45.7095 29.7562 45.5442C29.7937 45.3793 29.7996 45.2122 29.7996 44.9821H29.5496ZM29.3299 45.9518L29.1055 45.8415C28.9391 46.1802 28.7875 46.3739 28.0118 47.1302L28.1863 47.3092L28.3608 47.4882C29.136 46.7324 29.3458 46.486 29.5542 46.0621L29.3299 45.9518ZM28.1863 47.3092L28.0107 47.1313C27.7562 47.3825 27.4966 47.6503 27.2843 47.8807C27.0785 48.104 26.9004 48.3099 26.8247 48.4294L27.0359 48.5631L27.2471 48.6969C27.2943 48.6225 27.4394 48.4502 27.652 48.2195C27.8582 47.9957 28.1123 47.7336 28.3619 47.4871L28.1863 47.3092ZM27.0359 48.5631L26.8279 48.4245C26.7218 48.5836 26.6382 48.7096 26.595 48.8744C26.5543 49.0299 26.5525 49.209 26.5525 49.4674L26.8025 49.4674L27.0525 49.4674C27.0525 49.1897 27.0576 49.0815 27.0787 49.0012C27.0972 48.9303 27.1304 48.8722 27.2439 48.7018L27.0359 48.5631ZM26.8025 49.4674H26.5525C26.5525 49.8467 26.6206 50.3633 26.7255 50.8813L26.9705 50.8317L27.2155 50.7821C27.1136 50.2789 27.0525 49.7991 27.0525 49.4674H26.8025ZM26.9705 50.8317L26.7258 50.8827C26.8365 51.4143 26.8936 51.889 26.899 52.2826C26.9044 52.6814 26.8563 52.9753 26.7743 53.1598L27.0027 53.2614L27.2312 53.3629C27.356 53.0821 27.4048 52.7041 27.3989 52.2758C27.393 51.8422 27.3307 51.3347 27.2152 50.7807L26.9705 50.8317ZM27.0027 53.2614L26.7742 53.1601C26.6695 53.3963 26.4555 53.65 26.1877 53.8581C25.9197 54.0664 25.6236 54.209 25.3735 54.2489L25.4129 54.4958L25.4523 54.7426C25.8097 54.6856 26.1825 54.4954 26.4945 54.2529C26.8067 54.0102 27.0839 53.6952 27.2313 53.3627L27.0027 53.2614ZM25.4129 54.4958L25.3738 54.2488C25.2961 54.2611 25.2171 54.2826 25.1509 54.3126C25.119 54.3271 25.0786 54.3486 25.0419 54.3803C25.0133 54.405 24.9377 54.4782 24.9373 54.5984L25.1873 54.5993L25.4373 54.6002C25.4371 54.6521 25.4196 54.6917 25.405 54.7155C25.3908 54.7386 25.3759 54.7525 25.3688 54.7587C25.3553 54.7703 25.3483 54.7721 25.3574 54.768C25.3734 54.7607 25.4071 54.7498 25.452 54.7427L25.4129 54.4958ZM25.1873 54.5993H24.9373C24.9373 54.6359 24.9457 54.6644 24.9467 54.6681C24.9495 54.678 24.9523 54.6861 24.954 54.6909C24.9577 54.7008 24.9616 54.7102 24.9646 54.7173C24.971 54.7321 24.9793 54.75 24.9886 54.7694C25.0075 54.8089 25.0345 54.8635 25.0683 54.9305C25.1362 55.0649 25.2338 55.2543 25.3539 55.4843C25.5943 55.9444 25.9259 56.5692 26.2916 57.2455L26.5115 57.1266L26.7314 57.0077C26.3668 56.3333 26.0363 55.7106 25.7971 55.2528C25.6775 55.0238 25.581 54.8366 25.5147 54.7052C25.4814 54.6393 25.4563 54.5886 25.4399 54.5541C25.4315 54.5365 25.4263 54.5252 25.4237 54.519C25.4222 54.5156 25.4227 54.5166 25.424 54.5202C25.4246 54.5218 25.4266 54.5273 25.4287 54.5351C25.4292 54.5367 25.4373 54.5637 25.4373 54.5993H25.1873ZM26.5115 57.1266L26.2914 57.2451C26.9068 58.3884 27.2343 59.0052 27.4086 59.3736C27.5808 59.7375 27.5867 59.8251 27.5867 59.9186H27.8367H28.0867C28.0867 59.7148 28.044 59.5472 27.8606 59.1597C27.6793 58.7768 27.3442 58.1463 26.7317 57.0081L26.5115 57.1266ZM27.8367 59.9186L27.5867 59.9186C27.5866 60.3357 27.273 60.6934 26.8233 60.7496L26.8543 60.9977L26.8853 61.2458C27.5729 61.1598 28.0866 60.6001 28.0867 59.9186L27.8367 59.9186ZM26.8543 60.9977L26.8133 60.7511C26.755 60.7608 26.5155 60.775 26.1492 60.7899C25.7938 60.8044 25.3412 60.8189 24.8766 60.8318L24.8836 61.0817L24.8905 61.3316C25.3561 61.3187 25.8111 61.3041 26.1696 61.2895C26.5172 61.2753 26.798 61.2605 26.8952 61.2443L26.8543 60.9977ZM24.8836 61.0817L24.877 60.8318L23.1768 60.8767L23.1834 61.1266L23.19 61.3765L24.8902 61.3316L24.8836 61.0817ZM23.1834 61.1266L22.9904 60.9676L21.8664 62.3319L22.0594 62.4909L22.2523 62.6498L23.3763 61.2856L23.1834 61.1266ZM22.0594 62.4909L21.8668 62.3315C21.5582 62.7044 21.2563 63.0557 21.0195 63.3203C20.9009 63.4528 20.8 63.562 20.7233 63.6408C20.6849 63.6804 20.6542 63.7105 20.6316 63.7314C20.6026 63.758 20.6017 63.7555 20.6175 63.7466L20.74 63.9645L20.8626 64.1824C20.9042 64.159 20.9445 64.1229 20.9704 64.0991C21.0025 64.0695 21.0402 64.0322 21.0818 63.9895C21.1652 63.9036 21.2713 63.7887 21.3921 63.6538C21.634 63.3835 21.9401 63.0271 22.252 62.6503L22.0594 62.4909ZM20.74 63.9645L20.6116 63.75C20.5401 63.7928 20.3944 63.8307 20.159 63.8307L20.159 64.0807L20.159 64.3307C20.427 64.3307 20.6814 64.291 20.8684 64.179L20.74 63.9645ZM20.159 64.0807V63.8307C19.9715 63.8307 19.9043 63.8308 19.8396 63.806C19.7858 63.7853 19.7069 63.734 19.5682 63.5503C19.2831 63.173 18.8525 62.3888 17.9344 60.7283L17.7156 60.8493L17.4968 60.9702C18.4012 62.6059 18.8562 63.4374 19.1692 63.8517C19.3295 64.0639 19.4777 64.2025 19.6602 64.2727C19.8319 64.3387 20.0104 64.3307 20.159 64.3307V64.0807ZM17.7156 60.8493L17.9346 60.7287L16.3194 57.7942L16.1004 57.9147L15.8814 58.0353L17.4966 60.9698L17.7156 60.8493ZM16.1004 57.9147L16.2072 57.6887L15.8517 57.5207L15.7449 57.7467L15.6381 57.9728L15.9936 58.1407L16.1004 57.9147ZM15.7449 57.7467L15.8511 57.5204C15.257 57.2417 14.516 57.2565 13.9307 57.5565L14.0447 57.779L14.1587 58.0014C14.6075 57.7715 15.1858 57.7606 15.6387 57.9731L15.7449 57.7467ZM14.0447 57.779L13.9297 57.557L13.5547 57.7513L13.6697 57.9733L13.7847 58.1953L14.1597 58.0009L14.0447 57.779ZM13.6697 57.9733L13.4507 57.8528L11.854 60.7541L12.073 60.8747L12.2921 60.9952L13.8887 58.0938L13.6697 57.9733ZM12.073 60.8747L11.8539 60.7544C10.9588 62.385 10.5326 63.164 10.251 63.5428C10.1132 63.7283 10.0345 63.7825 9.98212 63.8043C9.92329 63.8288 9.86196 63.8307 9.68827 63.8307V64.0807V64.3307C9.83127 64.3307 10.0042 64.3367 10.1742 64.2659C10.3506 64.1925 10.4953 64.0523 10.6523 63.8411C10.9605 63.4264 11.4099 62.6024 12.2922 60.995L12.073 60.8747ZM9.68827 64.0807L9.68835 63.8307C9.60855 63.8307 9.51173 63.8212 9.4221 63.8055C9.3276 63.7889 9.2634 63.7693 9.23905 63.7578L9.13261 63.984L9.02616 64.2102C9.11161 64.2505 9.22832 64.2791 9.33574 64.298C9.44804 64.3177 9.57415 64.3307 9.68819 64.3307L9.68827 64.0807ZM9.13261 63.984L9.24019 63.7584C9.25066 63.7634 9.24666 63.7631 9.22271 63.7437C9.20199 63.7269 9.17414 63.7022 9.13862 63.6682C9.06773 63.6005 8.97495 63.5044 8.86112 63.3802C8.63391 63.1323 8.3314 62.7818 7.96747 62.3438L7.77518 62.5036L7.5829 62.6633C7.9492 63.1042 8.25751 63.4616 8.4925 63.718C8.60978 63.846 8.71094 63.9511 8.7932 64.0297C8.83426 64.069 8.87278 64.1037 8.90778 64.1321C8.93954 64.1578 8.98061 64.1885 9.02502 64.2097L9.13261 63.984ZM7.77518 62.5036L7.96798 62.3444L6.83126 60.9675L6.63847 61.1266L6.44567 61.2858L7.58239 62.6627L7.77518 62.5036ZM6.63847 61.1266L6.64533 60.8767L5.00959 60.8318L5.00272 61.0817L4.99586 61.3316L6.6316 61.3765L6.63847 61.1266ZM5.00272 61.0817L5.00924 60.8318C4.01341 60.8058 3.46075 60.7865 3.1243 60.7521C2.79723 60.7186 2.71259 60.6742 2.63242 60.6181L2.48905 60.8229L2.34569 61.0277C2.52402 61.1525 2.70425 61.2117 3.07341 61.2495C3.43318 61.2863 4.0081 61.3059 4.99621 61.3316L5.00272 61.0817ZM2.48905 60.8229L2.62943 60.616C2.46515 60.5046 2.38474 60.4179 2.33903 60.3305C2.29304 60.2426 2.26737 60.1256 2.26737 59.9245H2.01737H1.76737C1.76737 60.1628 1.79659 60.3722 1.89596 60.5623C1.99561 60.7528 2.15104 60.8957 2.34867 61.0298L2.48905 60.8229ZM2.01737 59.9245L2.26737 59.9245C2.26737 59.8253 2.26876 59.7737 2.28397 59.7066C2.3001 59.6355 2.33451 59.5371 2.41638 59.3608C2.58136 59.0057 2.9108 58.3927 3.57555 57.154L3.35526 57.0358L3.13498 56.9176C2.47527 58.1469 2.13577 58.7781 1.96292 59.1502C1.87587 59.3376 1.82414 59.4736 1.79637 59.596C1.76767 59.7225 1.76737 59.8234 1.76737 59.9245L2.01737 59.9245ZM3.35526 57.0358L3.57532 57.1544L4.91321 54.673L4.69315 54.5544L4.4731 54.4357L3.13521 56.9172L3.35526 57.0358ZM4.69315 54.5544L4.76658 54.3154L4.42966 54.2119L4.35624 54.4508L4.28281 54.6898L4.61973 54.7933L4.69315 54.5544ZM4.35624 54.4508L4.43136 54.2124C3.65534 53.9679 3.18951 53.5513 3.02991 53.0729L2.79276 53.152L2.55561 53.2311C2.78397 53.9156 3.41626 54.4168 4.28111 54.6893L4.35624 54.4508ZM2.79276 53.152L3.02962 53.072C2.88388 52.6404 2.89666 51.8618 3.09546 50.8742L2.85038 50.8249L2.6053 50.7755C2.40339 51.7785 2.36557 52.6683 2.5559 53.232L2.79276 53.152ZM2.85038 50.8249L3.09515 50.8757C3.20038 50.3693 3.26833 49.8404 3.26835 49.4743L3.01835 49.4743L2.76835 49.4743C2.76834 49.7932 2.70718 50.2852 2.60561 50.774L2.85038 50.8249ZM3.01835 49.4743H3.26835C3.26835 49.2273 3.26461 49.0532 3.22978 48.9014C3.19266 48.7395 3.12362 48.6164 3.0317 48.4654L2.81815 48.5954L2.6046 48.7254C2.69365 48.8716 2.72471 48.9359 2.74244 49.0132C2.76247 49.1005 2.76835 49.2172 2.76835 49.4743H3.01835ZM2.81815 48.5954L3.03322 48.4679C2.96616 48.3547 2.80241 48.1612 2.61479 47.9551C2.41995 47.7411 2.17908 47.4917 1.93973 47.2589L1.76542 47.4381L1.59111 47.6174C1.82351 47.8434 2.05731 48.0854 2.24504 48.2917C2.44 48.5058 2.56674 48.6615 2.60308 48.7228L2.81815 48.5954ZM1.76542 47.4381L1.9394 47.2586C1.31527 46.6538 0.938476 46.2158 0.726886 45.8388C0.522819 45.4752 0.471271 45.1664 0.513719 44.8042L0.265418 44.7751L0.0171173 44.746C-0.0373803 45.211 0.034157 45.6262 0.290869 46.0835C0.540059 46.5275 0.961741 47.0074 1.59144 47.6177L1.76542 47.4381ZM0.265418 44.7751L0.513667 44.8046C0.54815 44.5148 0.622861 44.2875 0.80513 44.0129C0.994721 43.7271 1.30115 43.3892 1.81118 42.8856L1.63554 42.7077L1.45989 42.5298C0.949203 43.034 0.609384 43.4035 0.388502 43.7364C0.160298 44.0803 0.0603097 44.3829 0.017169 44.7455L0.265418 44.7751ZM1.63554 42.7077L1.81118 42.8856C2.06955 42.6305 2.33128 42.3573 2.54454 42.1228C2.7519 41.8947 2.92893 41.6865 3.00397 41.568L2.79276 41.4342L2.58156 41.3005C2.5338 41.3759 2.38751 41.5523 2.1746 41.7864C1.96759 42.0141 1.7121 42.2808 1.45989 42.5298L1.63554 42.7077ZM2.79276 41.4342L3.00384 41.5682C3.10819 41.4038 3.18755 41.2757 3.22841 41.1081C3.26675 40.9508 3.26835 40.769 3.26835 40.5036L3.01835 40.5036L2.76835 40.5036C2.76835 40.7874 2.76379 40.9029 2.74264 40.9897C2.72402 41.066 2.69059 41.1287 2.58168 41.3003L2.79276 41.4342ZM3.01835 40.5036H3.26835C3.26835 40.1289 3.21495 39.6449 3.12042 39.2328L2.87675 39.2887L2.63308 39.3446C2.71942 39.721 2.76835 40.1675 2.76835 40.5036H3.01835ZM2.87675 39.2887L3.1211 39.2359C3.02217 38.7784 2.98417 38.4148 2.98417 37.776H2.73417H2.48417C2.48417 38.4427 2.5245 38.8426 2.63239 39.3416L2.87675 39.2887ZM2.73417 37.776L2.98416 37.7741C2.98085 37.3377 2.98189 37.143 3.00224 37.0122C3.01913 36.9036 3.04745 36.8453 3.14098 36.6744L2.92167 36.5544L2.70235 36.4343C2.60846 36.6059 2.5398 36.732 2.50818 36.9353C2.48002 37.1164 2.48102 37.3613 2.48418 37.7779L2.73417 37.776ZM2.92167 36.5544L3.13995 36.6762C3.33121 36.3337 3.54488 36.1197 3.95895 35.9508C4.39557 35.7727 5.05136 35.6464 6.13255 35.5104L6.10136 35.2624L6.07016 35.0143C4.99307 35.1498 4.27551 35.2817 3.7701 35.4879C3.24215 35.7032 2.94512 35.9995 2.70339 36.4325L2.92167 36.5544ZM6.10136 35.2624L6.13202 35.5105C6.43508 35.473 6.74701 35.4034 7.01754 35.3191C7.28195 35.2367 7.52935 35.1334 7.68851 35.0192L7.54276 34.8161L7.39701 34.613C7.30402 34.6797 7.11827 34.764 6.86879 34.8417C6.62543 34.9176 6.34274 34.9806 6.07069 35.0142L6.10136 35.2624ZM7.54276 34.8161L7.69276 35.0161C7.85959 34.891 8.05089 34.647 8.22318 34.3834C8.4009 34.1115 8.57776 33.7886 8.71004 33.48L8.48026 33.3815L8.25048 33.283C8.13069 33.5625 7.96805 33.8599 7.80467 34.1098C7.63584 34.3681 7.48443 34.5473 7.39276 34.6161L7.54276 34.8161ZM8.48026 33.3815L8.70979 33.4806C9.21633 32.3072 9.76801 31.606 10.2698 31.3634L10.1609 31.1383L10.0521 30.9133C9.37757 31.2394 8.76536 32.0903 8.25074 33.2824L8.48026 33.3815ZM10.1609 31.1383L10.2686 31.364C10.4028 31.2999 10.4753 31.2734 10.5661 31.2595C10.6662 31.2442 10.7989 31.2427 11.0557 31.2524L11.0652 31.0026L11.0747 30.7528C10.8213 30.7432 10.6438 30.7418 10.4904 30.7653C10.3276 30.7902 10.203 30.8412 10.0533 30.9127L10.1609 31.1383ZM11.0652 31.0026L11.0539 31.2523C11.3433 31.2655 11.4638 31.2734 11.6075 31.3171C11.7608 31.3636 11.9443 31.452 12.3423 31.6526L12.4549 31.4294L12.5674 31.2061C12.1834 31.0125 11.9565 30.9004 11.7527 30.8386C11.5393 30.7738 11.3559 30.7655 11.0766 30.7529L11.0652 31.0026ZM12.4549 31.4294L12.3444 31.6536C12.789 31.8727 13.3283 32.1486 13.5505 32.2692L13.6697 32.0495L13.789 31.8298C13.5584 31.7046 13.0123 31.4253 12.5654 31.2051L12.4549 31.4294ZM13.6697 32.0495L13.5504 32.2692C13.796 32.4025 14.1902 32.5519 14.4346 32.6148L14.4969 32.3727L14.5592 32.1306C14.3511 32.077 13.9956 31.9419 13.789 31.8298L13.6697 32.0495ZM14.4969 32.3727L14.4353 32.615C14.6233 32.6628 14.7652 32.6954 14.9124 32.6954C15.0604 32.6954 15.1995 32.6625 15.3818 32.6145L15.3182 32.3727L15.2545 32.1309C15.0684 32.1799 14.9875 32.1954 14.9124 32.1954C14.8363 32.1954 14.7517 32.1795 14.5585 32.1304L14.4969 32.3727ZM15.3182 32.3727L15.378 32.6154C15.8592 32.4969 16.1495 32.3588 17.0039 31.8798L16.8816 31.6618L16.7594 31.4437C15.9081 31.9209 15.6686 32.0289 15.2583 32.13L15.3182 32.3727ZM16.8816 31.6618L17.0042 31.8797C17.9235 31.3626 18.3045 31.2399 18.8338 31.2399L18.8338 30.9899L18.8338 30.7399C18.174 30.7399 17.7011 30.914 16.7591 31.4439L16.8816 31.6618ZM6.60624 54.8063L6.66503 54.5633C6.56682 54.5396 6.49615 54.5181 6.41152 54.4958C6.33565 54.4758 6.24896 54.4552 6.16035 54.4521C6.06474 54.4487 5.96744 54.4652 5.87 54.5154C5.77713 54.5633 5.69785 54.6347 5.62465 54.7197C5.48285 54.8843 5.3248 55.1474 5.11225 55.5333C4.89685 55.9244 4.61249 56.4665 4.21969 57.2022L4.44022 57.32L4.66076 57.4377C5.05643 56.6966 5.33688 56.1619 5.55023 55.7745C5.76642 55.382 5.90105 55.1649 6.00346 55.046C6.05237 54.9893 6.08307 54.9681 6.09903 54.9599C6.1104 54.954 6.12075 54.951 6.14257 54.9518C6.17139 54.9528 6.21192 54.9602 6.28399 54.9792C6.3473 54.9959 6.44531 55.0246 6.54745 55.0493L6.60624 54.8063ZM4.44022 57.32L4.21997 57.2017L2.82446 59.8003L3.04472 59.9186L3.26497 60.0369L4.66047 57.4383L4.44022 57.32ZM3.04472 59.9186L3.03425 60.1684L5.03815 60.2524L5.04862 60.0026L5.05909 59.7528L3.05518 59.6688L3.04472 59.9186ZM5.04862 60.0026L5.03839 60.2524C5.58892 60.2749 6.10203 60.3023 6.48663 60.3272C6.6791 60.3397 6.83829 60.3514 6.95343 60.3616C7.01121 60.3667 7.05625 60.3713 7.08818 60.3751C7.13166 60.3804 7.12768 60.3819 7.10886 60.3757L7.18729 60.1383L7.26573 59.901C7.22733 59.8883 7.17636 59.8821 7.14826 59.8787C7.10861 59.8739 7.0575 59.8688 6.9974 59.8635C6.87678 59.8529 6.71329 59.8408 6.51894 59.8282C6.12991 59.8031 5.61282 59.7755 5.05885 59.7528L5.04862 60.0026ZM7.18729 60.1383L7.10186 60.3733C7.0797 60.3652 7.06502 60.3559 7.06114 60.3535C7.05817 60.3516 7.05603 60.3501 7.05484 60.3492C7.05361 60.3484 7.05292 60.3478 7.05283 60.3477C7.05274 60.3477 7.05394 60.3486 7.05663 60.3509C7.05924 60.3532 7.06271 60.3563 7.06711 60.3604C7.08552 60.3774 7.11248 60.4043 7.14832 60.442C7.2194 60.5166 7.31622 60.6237 7.43249 60.7564C7.66453 61.0211 7.96812 61.3808 8.28677 61.7703L8.48026 61.612L8.67375 61.4537C8.35256 61.0611 8.04522 60.6969 7.80851 60.4268C7.6904 60.292 7.58839 60.179 7.51035 60.0971C7.47163 60.0564 7.43646 60.021 7.40692 59.9936C7.39235 59.9801 7.37635 59.966 7.36017 59.9534C7.35085 59.9461 7.31749 59.9197 7.27273 59.9034L7.18729 60.1383ZM8.48026 61.612L8.28677 61.7703C8.60572 62.1601 8.89941 62.5166 9.11647 62.7766C9.22486 62.9063 9.31492 63.013 9.37971 63.0878C9.41187 63.125 9.43923 63.156 9.46009 63.1786C9.47015 63.1895 9.48115 63.2011 9.4916 63.2112C9.49643 63.2159 9.50475 63.2238 9.51492 63.232C9.51983 63.2359 9.529 63.2431 9.5411 63.2507C9.54741 63.2547 9.57981 63.2756 9.62681 63.2849L9.67557 63.0397L9.72434 62.7945C9.77062 62.8037 9.80205 62.8242 9.80715 62.8274C9.81803 62.8342 9.82574 62.8403 9.82895 62.8429C9.83279 62.846 9.83551 62.8484 9.83677 62.8495C9.83816 62.8508 9.83899 62.8516 9.83914 62.8517C9.83937 62.852 9.83849 62.8511 9.83621 62.8487C9.83404 62.8465 9.83114 62.8434 9.82744 62.8394C9.81216 62.8229 9.78899 62.7967 9.75781 62.7607C9.69594 62.6892 9.60813 62.5852 9.50025 62.4561C9.28477 62.198 8.99229 61.843 8.67375 61.4537L8.48026 61.612ZM9.67557 63.0397V63.2897C9.75983 63.2897 9.81572 63.2472 9.82301 63.2419C9.84082 63.2291 9.85321 63.2166 9.85874 63.2109C9.87069 63.1984 9.87959 63.1867 9.8838 63.1811C9.89345 63.1682 9.90291 63.1539 9.9108 63.1416C9.92746 63.1157 9.94883 63.0803 9.97349 63.0383C10.0233 62.9536 10.0921 62.8325 10.1744 62.685C10.3394 62.3894 10.5616 61.9826 10.8012 61.5358L10.5808 61.4176L10.3605 61.2995C10.1219 61.7446 9.90108 62.1488 9.73783 62.4413C9.65608 62.5878 9.58942 62.705 9.54241 62.785C9.51865 62.8254 9.50126 62.8541 9.49004 62.8715C9.484 62.8809 9.48225 62.8832 9.48356 62.8814C9.4836 62.8814 9.48906 62.8739 9.4983 62.8643C9.50248 62.86 9.5137 62.8485 9.53052 62.8364C9.53683 62.8319 9.59192 62.7897 9.67557 62.7897V63.0397ZM10.5808 61.4176L10.8015 61.5351C11.2798 60.6367 11.789 59.6875 11.9368 59.4176L11.7176 59.2975L11.4983 59.1774C11.3488 59.4504 10.8383 60.4021 10.3602 61.3001L10.5808 61.4176ZM11.7176 59.2975L11.9381 59.4153L12.2037 58.9183L11.9832 58.8004L11.7627 58.6826L11.4971 59.1797L11.7176 59.2975ZM11.9832 58.8004L11.8977 58.5655L11.6321 58.6622L11.7176 58.8971L11.8031 59.132L12.0687 59.0354L11.9832 58.8004ZM11.7176 58.8971L11.6356 58.6609C11.5205 58.7009 11.2143 58.7506 10.9685 58.7506L10.9685 59.0006L10.9686 59.2506C11.2522 59.2506 11.617 59.1966 11.7995 59.1333L11.7176 58.8971ZM10.9685 59.0006L10.9646 58.7507C10.7635 58.7539 10.6506 58.7482 10.5552 58.7288C10.4632 58.7101 10.3744 58.676 10.2268 58.6022L10.115 58.8258L10.0032 59.0494C10.1659 59.1308 10.3003 59.1873 10.4557 59.2188C10.6076 59.2497 10.7664 59.2539 10.9725 59.2506L10.9685 59.0006ZM10.115 58.8258L10.2258 58.6017C9.74438 58.3637 9.45159 58.0198 8.86572 56.8288L8.64139 56.9391L8.41706 57.0495C9.00726 58.2493 9.36147 58.7322 10.0042 59.0499L10.115 58.8258ZM8.64139 56.9391L8.86605 56.8294C8.46573 56.0096 8.1882 55.4973 7.87229 55.1668C7.5378 54.817 7.17374 54.683 6.66351 54.563L6.60624 54.8063L6.54897 55.0497C7.0272 55.1622 7.27684 55.2675 7.51088 55.5124C7.76349 55.7766 8.0093 56.2144 8.41674 57.0488L8.64139 56.9391ZM23.9139 54.6706L23.9745 54.428C23.9311 54.4172 23.8888 54.42 23.8852 54.4201C23.869 54.4207 23.8514 54.4221 23.8345 54.4238C23.8001 54.4271 23.7568 54.4325 23.7087 54.4392C23.612 54.4527 23.4875 54.4727 23.3589 54.4958L23.4031 54.7419L23.4473 54.9879C23.5708 54.9658 23.6887 54.9469 23.7779 54.9344C23.8228 54.9282 23.8583 54.9238 23.8827 54.9214C23.8952 54.9202 23.902 54.9198 23.9044 54.9197C23.9057 54.9197 23.9032 54.9198 23.8983 54.9197C23.8973 54.9196 23.8781 54.9193 23.8532 54.9131L23.9139 54.6706ZM23.4031 54.7419L23.3604 54.4955C23.1006 54.5406 22.8324 54.618 22.6013 54.7086C22.3771 54.7965 22.162 54.9066 22.0276 55.0279L22.1951 55.2135L22.3626 55.3991C22.4286 55.3395 22.5753 55.2558 22.7838 55.1741C22.9855 55.0951 23.2211 55.0271 23.4458 54.9882L23.4031 54.7419ZM22.1951 55.2135L22.0287 55.027C21.8798 55.1598 21.7039 55.4035 21.5375 55.6749C21.3668 55.9533 21.1918 56.2848 21.0482 56.6121L21.2771 56.7126L21.5061 56.813C21.6404 56.507 21.8048 56.1956 21.9638 55.9362C22.1272 55.6696 22.2713 55.4806 22.3615 55.4001L22.1951 55.2135ZM21.2771 56.7126L21.0488 56.6108C20.5485 57.7331 20.0794 58.3289 19.6105 58.5716L19.7254 58.7936L19.8403 59.0156C20.4701 58.6896 20.9975 57.954 21.5055 56.8143L21.2771 56.7126ZM19.7254 58.7936L19.6083 58.5727C19.4957 58.6324 19.2706 58.6858 19.0003 58.7076C18.7353 58.7291 18.4703 58.7168 18.292 58.6737L18.2332 58.9167L18.1744 59.1596C18.4226 59.2197 18.7454 59.2299 19.0407 59.206C19.3307 59.1825 19.6383 59.1227 19.8425 59.0145L19.7254 58.7936ZM18.2332 58.9167L18.3006 58.6759C18.2112 58.6509 18.1254 58.6329 18.0583 58.6217C18.025 58.6162 17.9938 58.6119 17.9675 58.6095C17.9547 58.6083 17.9396 58.6072 17.9243 58.6071C17.9168 58.607 17.9057 58.6071 17.8929 58.6082C17.8852 58.6088 17.8551 58.6113 17.8202 58.6247L17.9099 58.8581L17.9997 59.0914C17.9807 59.0987 17.965 59.102 17.9568 59.1035C17.9477 59.1052 17.9404 59.1059 17.9358 59.1063C17.927 59.1071 17.9208 59.107 17.9191 59.107C17.9154 59.107 17.9156 59.1068 17.9214 59.1074C17.9321 59.1084 17.9508 59.1107 17.9763 59.115C18.0271 59.1234 18.0952 59.1376 18.1658 59.1574L18.2332 58.9167ZM17.9099 58.8581L17.7332 58.6813C17.6797 58.7348 17.6666 58.7952 17.6627 58.82C17.6583 58.8484 17.6598 58.8713 17.6608 58.8826C17.663 58.9057 17.6679 58.9236 17.6698 58.9301C17.6742 58.9457 17.6794 58.959 17.682 58.9655C17.6882 58.9807 17.6961 58.9979 17.7038 59.0143C17.72 59.0483 17.7433 59.0949 17.772 59.1509C17.8298 59.2636 17.9133 59.4222 18.0137 59.6106C18.2147 59.9878 18.4858 60.4887 18.7601 60.9911C19.0344 61.4935 19.3124 61.9982 19.5273 62.3829C19.6347 62.5752 19.7268 62.7383 19.7949 62.8564C19.8289 62.9153 19.8576 62.9642 19.8796 63.0004C19.8905 63.0184 19.9008 63.0348 19.9097 63.0484C19.9132 63.0537 19.9313 63.0822 19.9545 63.1057L20.1326 62.9303L20.3108 62.7549C20.3285 62.773 20.3373 62.7885 20.3275 62.7737C20.3233 62.7673 20.3165 62.7565 20.3069 62.7407C20.2878 62.7094 20.2613 62.6643 20.228 62.6065C20.1616 62.4914 20.0709 62.3307 19.9639 62.1391C19.75 61.7562 19.4728 61.2531 19.1989 60.7515C18.925 60.2499 18.6549 59.7506 18.4549 59.3755C18.3549 59.1877 18.2729 59.032 18.217 58.9229C18.1889 58.868 18.1683 58.8268 18.1556 58.7999C18.1525 58.7934 18.1501 58.7882 18.1483 58.7842C18.1474 58.7822 18.1467 58.7807 18.1462 58.7796C18.1457 58.7784 18.1455 58.778 18.1456 58.778C18.1456 58.7781 18.1461 58.7792 18.1468 58.7813C18.1474 58.7831 18.1491 58.7877 18.1509 58.7941C18.1521 58.7984 18.1566 58.8144 18.1587 58.8362C18.1596 58.8467 18.1611 58.8691 18.1568 58.8971C18.153 58.9215 18.14 58.9816 18.0867 59.0348L17.9099 58.8581ZM20.1326 62.9303L19.9558 63.1071C20.0402 63.1915 20.1433 63.1876 20.1908 63.1788C20.2372 63.1703 20.2729 63.1514 20.2912 63.1409C20.3309 63.1181 20.369 63.087 20.4006 63.059C20.4677 62.9998 20.5542 62.9113 20.657 62.7996C20.8644 62.5739 21.1587 62.2304 21.5341 61.7773L21.3416 61.6178L21.1491 61.4583C20.7748 61.91 20.4872 62.2454 20.2889 62.4612C20.1887 62.5701 20.1165 62.6429 20.0697 62.6842C20.0445 62.7064 20.0369 62.7103 20.0424 62.7072C20.0435 62.7065 20.065 62.6936 20.1 62.6871C20.1361 62.6805 20.2306 62.6748 20.3094 62.7536L20.1326 62.9303ZM21.3416 61.6178L21.5339 61.7776C21.8494 61.3977 22.1498 61.0459 22.3804 60.7849C22.4959 60.6542 22.5926 60.5477 22.6642 60.4724C22.7003 60.4345 22.7281 60.4064 22.7479 60.3878C22.7579 60.3783 22.7638 60.3732 22.7663 60.3711C22.7727 60.3658 22.7614 60.3764 22.7395 60.3873L22.6277 60.1637L22.5159 59.9401C22.4844 59.9559 22.4595 59.9761 22.4486 59.985C22.4339 59.9971 22.4189 60.0107 22.4045 60.0244C22.3754 60.0518 22.3406 60.0871 22.302 60.1278C22.2242 60.2095 22.1229 60.3212 22.0057 60.4538C21.7709 60.7196 21.4671 61.0754 21.1493 61.4581L21.3416 61.6178ZM22.6277 60.1637L22.7452 60.3844C22.7161 60.3999 22.6999 60.3991 22.7382 60.3922C22.7636 60.3876 22.8014 60.3821 22.8531 60.3762C22.9559 60.3643 23.1007 60.3517 23.2842 60.3389C23.6505 60.3134 24.1612 60.2877 24.7765 60.2651L24.7674 60.0153L24.7582 59.7655C24.14 59.7881 23.6233 59.814 23.2494 59.8401C23.0629 59.8531 22.9094 59.8663 22.7957 59.8795C22.7392 59.886 22.6893 59.8929 22.6487 59.9003C22.621 59.9053 22.5606 59.9163 22.5103 59.943L22.6277 60.1637ZM24.7674 60.0153L24.7777 60.2651C25.327 60.2425 25.8281 60.2214 26.1929 60.2051C26.3752 60.197 26.5239 60.19 26.6277 60.1847C26.6794 60.182 26.7209 60.1797 26.7501 60.1779C26.7644 60.1769 26.7775 60.176 26.788 60.1751C26.7927 60.1746 26.8001 60.1739 26.8078 60.1729C26.8111 60.1724 26.8193 60.1713 26.8293 60.1691C26.8339 60.1681 26.8445 60.1657 26.8575 60.1613C26.864 60.159 26.8752 60.1549 26.8886 60.1483C26.8992 60.143 26.9265 60.1287 26.9539 60.1012L26.7771 59.9245L26.6004 59.7477C26.6278 59.7203 26.6549 59.7061 26.6655 59.7008C26.6787 59.6942 26.6898 59.6902 26.6962 59.688C26.7089 59.6837 26.719 59.6814 26.723 59.6805C26.732 59.6786 26.7387 59.6777 26.74 59.6775C26.7439 59.677 26.7457 59.6768 26.7432 59.6771C26.7391 59.6774 26.7311 59.678 26.7179 59.6789C26.6921 59.6806 26.6532 59.6827 26.602 59.6854C26.5 59.6906 26.3527 59.6975 26.1706 59.7056C25.8068 59.7218 25.3063 59.7429 24.7571 59.7655L24.7674 60.0153ZM26.7771 59.9245L27.0106 59.8351C27.0038 59.8173 26.9915 59.794 26.9909 59.7929C26.9852 59.7818 26.9774 59.7667 26.9676 59.7479C26.9479 59.7103 26.9196 59.6565 26.8837 59.5885C26.8118 59.4523 26.7089 59.2582 26.5822 59.0202C26.3287 58.5441 25.9802 57.892 25.5949 57.1761L25.3748 57.2946L25.1546 57.4131C25.5395 58.1282 25.8877 58.7797 26.1408 59.2551C26.2673 59.4928 26.37 59.6864 26.4416 59.8219C26.4774 59.8897 26.5052 59.9427 26.5244 59.9793C26.534 59.9977 26.5411 60.0116 26.5459 60.0209C26.5558 60.0402 26.5494 60.0288 26.5436 60.0138L26.7771 59.9245ZM25.3748 57.2946L25.5947 57.1757C25.2071 56.4585 24.8497 55.8037 24.5848 55.3268C24.4525 55.0885 24.3426 54.8935 24.2635 54.7571C24.2241 54.6892 24.1911 54.6337 24.1662 54.594C24.154 54.5747 24.1417 54.5557 24.1303 54.5399C24.125 54.5325 24.1165 54.521 24.106 54.5091C24.101 54.5035 24.0914 54.493 24.0782 54.4817C24.0722 54.4765 24.0347 54.4433 23.9752 54.4282L23.9139 54.6706L23.8525 54.9129C23.7941 54.8981 23.7579 54.8657 23.7535 54.8619C23.742 54.8521 23.7343 54.8435 23.7315 54.8404C23.7255 54.8336 23.7226 54.8294 23.7242 54.8315C23.7264 54.8346 23.7322 54.8432 23.7427 54.8598C23.7629 54.892 23.7924 54.9415 23.831 55.008C23.9078 55.1403 24.0158 55.332 24.1477 55.5695C24.4112 56.0441 24.7676 56.6971 25.1549 57.4135L25.3748 57.2946ZM19.2537 32.1403L19.3913 31.9316C19.1511 31.7732 18.8589 31.759 18.5416 31.8329C18.2263 31.9064 17.8542 32.0737 17.4168 32.3236L17.5408 32.5407L17.6648 32.7577C18.0869 32.5166 18.4096 32.3771 18.6551 32.3199C18.8986 32.2631 19.0331 32.2943 19.1161 32.349L19.2537 32.1403ZM17.5408 32.5407L17.417 32.3235C16.3087 32.955 15.5889 33.2427 14.9043 33.2471C14.2224 33.2515 13.533 32.9747 12.4851 32.3575L12.3582 32.5729L12.2313 32.7883C13.2902 33.412 14.0806 33.7524 14.9075 33.7471C15.7318 33.7418 16.5498 33.393 17.6646 32.7579L17.5408 32.5407ZM12.3582 32.5729L12.4842 32.357C12.2344 32.2112 11.94 32.0834 11.6608 31.9915C11.3858 31.9011 11.1045 31.8386 10.8846 31.8385L10.8846 32.0885L10.8845 32.3385C11.0266 32.3386 11.2495 32.3826 11.5045 32.4665C11.7553 32.5489 12.0168 32.6632 12.2322 32.7889L12.3582 32.5729ZM10.8846 32.0885V31.8385C10.5754 31.8385 10.3295 31.9876 10.095 32.2755C9.86971 32.5521 9.63071 32.9854 9.32733 33.6147L9.55253 33.7233L9.77773 33.8319C10.0818 33.2011 10.2988 32.817 10.4827 32.5912C10.6573 32.3768 10.7737 32.3385 10.8846 32.3385V32.0885ZM9.55253 33.7233L9.32746 33.6145C8.66357 34.9874 8.28804 35.4389 7.72559 35.7089L7.83378 35.9342L7.94196 36.1596C8.67213 35.8091 9.1101 35.2125 9.77759 33.8321L9.55253 33.7233ZM7.83378 35.9342L7.72423 35.7095C7.24251 35.9443 6.76282 36.0686 5.89831 36.1703L5.92753 36.4186L5.95674 36.6669C6.84967 36.5618 7.39113 36.4281 7.94333 36.159L7.83378 35.9342ZM5.92753 36.4186L5.89918 36.1702C5.29759 36.2389 4.82021 36.3303 4.45959 36.4525C4.10465 36.5728 3.82532 36.7353 3.66957 36.973L3.8787 37.11L4.08783 37.247C4.15207 37.1489 4.30278 37.0335 4.62008 36.926C4.9317 36.8204 5.36874 36.734 5.95588 36.667L5.92753 36.4186ZM3.8787 37.11L3.66823 36.9751C3.59815 37.0844 3.56309 37.2282 3.54376 37.3665C3.52344 37.5118 3.51668 37.6817 3.52136 37.8641C3.53073 38.2293 3.58655 38.665 3.68705 39.0938L3.93046 39.0368L4.17386 38.9797C4.08047 38.5813 4.02962 38.1796 4.0212 37.8513C4.01698 37.6869 4.02353 37.546 4.03895 37.4357C4.05536 37.3183 4.07846 37.2616 4.08917 37.2449L3.8787 37.11ZM3.93046 39.0368L3.68714 39.0942C3.79183 39.5378 3.84518 40.0675 3.84518 40.5368C3.84519 40.771 3.83189 40.9855 3.80652 41.1633C3.78038 41.3464 3.74405 41.4709 3.70891 41.5381L3.93046 41.654L4.152 41.7698C4.22669 41.6269 4.27273 41.4356 4.3015 41.234C4.33103 41.0271 4.34519 40.7881 4.34518 40.5368C4.34518 40.0352 4.2887 39.4663 4.17377 38.9794L3.93046 39.0368ZM3.93046 41.654L3.70837 41.5392C3.43016 42.0775 3.08499 42.4939 2.31686 43.2237L2.48905 43.4049L2.66124 43.5862C3.44379 42.8427 3.83624 42.3807 4.15255 41.7687L3.93046 41.654ZM2.48905 43.4049L2.31733 43.2232C1.93416 43.5854 1.63223 43.8917 1.42678 44.1702C1.22022 44.4502 1.09166 44.7278 1.09479 45.0302C1.09792 45.3317 1.23158 45.6097 1.44337 45.8916C1.65448 46.1726 1.96315 46.4832 2.35608 46.8519L2.52714 46.6696L2.6982 46.4873C2.3059 46.1192 2.02573 45.8343 1.84313 45.5913C1.66123 45.3491 1.59632 45.1745 1.59477 45.025C1.59322 44.8763 1.65387 44.7046 1.82914 44.467C2.00553 44.2279 2.27808 43.9483 2.66077 43.5866L2.48905 43.4049ZM2.52714 46.6696L2.35695 46.8527C2.94896 47.4029 3.30521 47.7935 3.52298 48.1535C3.73445 48.5032 3.82167 48.8349 3.84889 49.2824L4.09843 49.2672L4.34796 49.2521C4.317 48.7431 4.21316 48.3286 3.95082 47.8948C3.69478 47.4714 3.29447 47.0414 2.69733 46.4865L2.52714 46.6696ZM4.09843 49.2672L3.84874 49.2797C3.87331 49.7711 3.85647 50.0221 3.71032 50.7846L3.95585 50.8317L4.20138 50.8788C4.35253 50.0901 4.37525 49.7975 4.34811 49.2548L4.09843 49.2672ZM3.95585 50.8317L3.71004 50.7861C3.60265 51.3654 3.54186 51.823 3.53175 52.1791C3.52183 52.5285 3.55888 52.8171 3.68145 53.0304L3.89823 52.9059L4.11501 52.7814C4.0631 52.691 4.02234 52.5176 4.03155 52.1933C4.04056 51.8759 4.09582 51.4482 4.20166 50.8773L3.95585 50.8317ZM3.89823 52.9059L3.6823 53.0319C3.83525 53.294 4.08197 53.4663 4.44076 53.5894C4.79243 53.7101 5.27524 53.7915 5.93403 53.8597L5.95975 53.611L5.98548 53.3623C5.33239 53.2948 4.89755 53.2175 4.603 53.1165C4.31555 53.0179 4.18745 52.9055 4.11416 52.7799L3.89823 52.9059ZM5.95975 53.611L5.93227 53.8595C7.24826 54.005 7.84367 54.2635 8.37336 54.8397L8.55741 54.6706L8.74146 54.5014C8.095 53.7981 7.35938 53.5143 5.98724 53.3625L5.95975 53.611ZM8.55741 54.6706L8.37243 54.8387C8.67095 55.1671 8.84003 55.4314 9.29021 56.3446L9.51444 56.234L9.73868 56.1235C9.28422 55.2016 9.09011 54.8849 8.7424 54.5024L8.55741 54.6706ZM9.51444 56.234L9.29012 56.3444C9.67928 57.1355 9.93573 57.5907 10.1774 57.8326L10.3543 57.6559L10.5311 57.4792C10.3593 57.3073 10.1378 56.9348 9.73877 56.1237L9.51444 56.234ZM10.3543 57.6559L10.1734 57.8285L10.4576 58.1263L10.6385 57.9538L10.8193 57.7812L10.5352 57.4833L10.3543 57.6559ZM10.6385 57.9538L10.6554 58.2032L11.0431 58.1768L11.0262 57.9274L11.0092 57.678L10.6215 57.7043L10.6385 57.9538ZM11.0262 57.9274L11.0421 58.1769C11.4004 58.154 11.6529 58.0561 12.1949 57.7754L12.0799 57.5534L11.9649 57.3314C11.4344 57.6062 11.2594 57.662 11.0102 57.6779L11.0262 57.9274ZM12.0799 57.5534L12.1955 57.775C13.7002 56.9902 13.9406 56.8915 14.4492 56.7897L14.4002 56.5446L14.3512 56.2994C13.7611 56.4175 13.4584 56.5525 11.9643 57.3317L12.0799 57.5534ZM14.4002 56.5446L14.452 56.7892C14.7357 56.7291 14.8464 56.7082 14.9549 56.7108C15.0645 56.7133 15.1794 56.7399 15.4698 56.8133L15.531 56.571L15.5923 56.3286C15.3205 56.2599 15.1447 56.2151 14.9666 56.2109C14.7876 56.2067 14.614 56.2438 14.3484 56.3L14.4002 56.5446ZM15.531 56.571L15.4717 56.8138C16.0192 56.9477 16.4027 57.1138 17.5373 57.7391L17.658 57.5202L17.7787 57.3012C16.6383 56.6727 16.2062 56.4786 15.5904 56.3281L15.531 56.571ZM17.658 57.5202L17.538 57.7395C18.0506 58.02 18.4531 58.1934 18.801 58.2103C19.1847 58.229 19.4634 58.0585 19.7171 57.779L19.532 57.611L19.3469 57.4429C19.1547 57.6546 19.0101 57.7199 18.8252 57.7109C18.6044 57.7002 18.2929 57.5826 17.778 57.3009L17.658 57.5202ZM19.532 57.611L19.7207 57.7749C19.8044 57.6787 19.934 57.4708 20.0726 57.2272C20.2161 56.9752 20.3818 56.6618 20.5392 56.3372L20.3142 56.2282L20.0893 56.1191C19.9365 56.4342 19.7759 56.7378 19.6381 56.98C19.4954 57.2307 19.389 57.3944 19.3433 57.447L19.532 57.611ZM20.3142 56.2282L20.5388 56.3381C20.9954 55.4056 21.1378 55.1804 21.4616 54.8267L21.2771 54.6579L21.0927 54.4891C20.7186 54.8979 20.5508 55.1767 20.0897 56.1182L20.3142 56.2282ZM21.2771 54.6579L21.4616 54.8267C21.6326 54.6398 21.7445 54.5339 21.8553 54.4546C21.9649 54.3762 22.0834 54.3168 22.2781 54.2351L22.1814 54.0045L22.0847 53.774C21.8789 53.8603 21.7197 53.9369 21.5645 54.0479C21.4106 54.158 21.2706 54.2947 21.0927 54.4891L21.2771 54.6579ZM22.1814 54.0045L22.2787 54.2348C22.7019 54.056 22.8932 54.0141 24.6344 53.7607L24.5984 53.5133L24.5624 53.2659C22.8402 53.5166 22.5786 53.5653 22.0841 53.7743L22.1814 54.0045ZM24.5984 53.5133L24.6335 53.7609C25.3766 53.6556 25.8346 53.4829 26.1241 53.0943L25.9236 52.945L25.7231 52.7956C25.5602 53.0143 25.2806 53.1643 24.5634 53.2658L24.5984 53.5133ZM25.9236 52.945L26.1236 53.095C26.2037 52.9882 26.2492 52.8555 26.275 52.7162C26.3011 52.5751 26.3099 52.411 26.3052 52.2276C26.2957 51.8611 26.2313 51.3896 26.1171 50.8152L25.8719 50.8639L25.6267 50.9127C25.7386 51.4757 25.797 51.9154 25.8053 52.2405C25.8095 52.4029 25.801 52.5296 25.7833 52.6252C25.7653 52.7226 25.7405 52.7725 25.7236 52.795L25.9236 52.945ZM25.8719 50.8639L26.117 50.8149C25.9642 50.0508 25.9424 49.8472 25.973 49.3078L25.7234 49.2936L25.4738 49.2794C25.4399 49.877 25.4694 50.1263 25.6267 50.913L25.8719 50.8639ZM25.7234 49.2936L25.973 49.3083C26.0011 48.8308 26.0584 48.5482 26.2413 48.2362C26.4339 47.9073 26.772 47.5348 27.4056 46.9044L27.2293 46.7272L27.053 46.55C26.4263 47.1734 26.0405 47.5897 25.8099 47.9834C25.5694 48.3939 25.5039 48.7675 25.4739 49.2789L25.7234 49.2936ZM27.2293 46.7272L27.4057 46.9043C27.8233 46.4883 28.1511 46.1531 28.3731 45.8617C28.5953 45.5703 28.7392 45.2884 28.7386 44.9792C28.7379 44.67 28.5929 44.3886 28.3697 44.0981C28.1465 43.8075 27.8174 43.4736 27.3982 43.0592L27.2224 43.237L27.0467 43.4148C27.4709 43.8341 27.7745 44.144 27.9732 44.4027C28.1719 44.6613 28.2383 44.8345 28.2386 44.9802C28.2388 45.1259 28.1732 45.2992 27.9755 45.5586C27.7778 45.8181 27.4754 46.1291 27.0528 46.5501L27.2293 46.7272ZM27.2224 43.237L27.3986 43.0595C26.5395 42.2069 26.4172 42.0508 26.211 41.6444L25.9881 41.7575L25.7651 41.8706C26.0113 42.3559 26.187 42.5615 27.0463 43.4144L27.2224 43.237ZM25.9881 41.7575L26.2134 41.6491C26.0863 41.385 26.04 41.2866 26.0152 41.1616C25.9888 41.029 25.9861 40.8624 25.9861 40.4645H25.7361H25.4861C25.4861 40.8422 25.4866 41.0668 25.5248 41.2591C25.5645 41.4591 25.6442 41.6193 25.7628 41.8658L25.9881 41.7575ZM25.7361 40.4645L25.9861 40.4645C25.9861 39.9108 26.024 39.549 26.1222 39.1255L25.8787 39.069L25.6352 39.0125C25.5267 39.4805 25.4861 39.8812 25.4861 40.4645L25.7361 40.4645ZM25.8787 39.069L26.1223 39.1252C26.2018 38.7808 26.288 38.2718 26.3151 37.9872L26.0662 37.9635L25.8173 37.9398C25.7927 38.1982 25.7107 38.6851 25.6351 39.0128L25.8787 39.069ZM26.0662 37.9635L26.3154 37.983C26.3316 37.776 26.3385 37.6206 26.3225 37.4797C26.3057 37.3315 26.2651 37.2112 26.2055 37.0708L25.9754 37.1686L25.7453 37.2664C25.7955 37.3845 25.8165 37.4549 25.8257 37.5361C25.8357 37.6246 25.8331 37.7375 25.817 37.9441L26.0662 37.9635ZM25.9754 37.1686L26.2034 37.066C26.1419 36.9294 26.0789 36.812 25.974 36.712C25.8729 36.6157 25.7487 36.5513 25.6026 36.4831L25.4969 36.7096L25.3911 36.9362C25.5359 37.0037 25.5928 37.0395 25.6291 37.0741C25.6617 37.1051 25.6926 37.1493 25.7474 37.2712L25.9754 37.1686ZM25.4969 36.7096L25.5992 36.4815C25.2412 36.3209 24.77 36.2394 23.3326 36.0478L23.2996 36.2956L23.2666 36.5434C24.7365 36.7394 25.1192 36.8142 25.3945 36.9377L25.4969 36.7096ZM23.2996 36.2956L23.3332 36.0478C23.0462 36.0089 22.6967 35.9131 22.3818 35.7937C22.0592 35.6714 21.8081 35.5375 21.6954 35.4371L21.5291 35.6237L21.3627 35.8103C21.5474 35.9749 21.8713 36.1349 22.2045 36.2612C22.5455 36.3905 22.9325 36.4981 23.266 36.5433L23.2996 36.2956ZM21.5291 35.6237L21.6939 35.4357C21.3663 35.1483 20.9896 34.5878 20.5132 33.5965L20.2879 33.7047L20.0625 33.813C20.5426 34.812 20.9552 35.4528 21.3642 35.8116L21.5291 35.6237ZM20.2879 33.7047L20.5133 33.5966C20.0593 32.6504 19.762 32.176 19.3913 31.9316L19.2537 32.1403L19.116 32.349C19.353 32.5052 19.5987 32.8461 20.0625 33.8129L20.2879 33.7047ZM14.1355 35.3844L14.1537 35.6338C15.9775 35.5012 17.8997 35.8999 19.3657 36.7143L19.4871 36.4958L19.6085 36.2772C18.0498 35.4113 16.0292 34.9962 14.1174 35.1351L14.1355 35.3844ZM19.4871 36.4958L19.3658 36.7144C21.843 38.0885 23.492 40.2975 24.1162 43.0721L24.3601 43.0172L24.604 42.9624C23.9487 40.0495 22.2111 37.7209 19.6084 36.2771L19.4871 36.4958ZM24.3601 43.0172L24.116 43.0709C24.2393 43.6319 24.2586 43.8626 24.2586 45.0143H24.5086H24.7586C24.7586 43.8526 24.7395 43.5785 24.6043 42.9636L24.3601 43.0172ZM24.5086 45.0143L24.2586 45.0129C24.2521 46.1226 24.2325 46.4087 24.1166 46.9091L24.3601 46.9655L24.6037 47.0219C24.7332 46.4629 24.7521 46.1284 24.7586 45.0158L24.5086 45.0143ZM24.3601 46.9655L24.1161 46.9114C23.2715 50.7247 20.3821 53.5315 16.5778 54.2432L16.6238 54.4889L16.6698 54.7347C20.6729 53.9857 23.7167 51.0265 24.6042 47.0195L24.3601 46.9655ZM16.6238 54.4889L16.5775 54.2432C15.7162 54.4055 14.1056 54.4055 13.2443 54.2432L13.198 54.4889L13.1517 54.7346C14.0742 54.9084 15.7476 54.9084 16.6701 54.7346L16.6238 54.4889ZM13.198 54.4889L13.2439 54.2432C9.43385 53.5314 6.55719 50.7312 5.69978 46.9107L5.45585 46.9655L5.21192 47.0202C6.11239 51.0326 9.14236 53.9856 13.1521 54.7347L13.198 54.4889ZM5.45585 46.9655L5.70004 46.9119C5.58984 46.4098 5.56972 46.1221 5.56327 45.0129L5.31327 45.0143L5.06327 45.0158C5.06975 46.1289 5.08935 46.4618 5.21166 47.0191L5.45585 46.9655ZM5.31327 45.0143H5.56327C5.56327 43.5702 5.65742 42.9843 6.04726 41.8714L5.81132 41.7887L5.57537 41.7061C5.16379 42.8811 5.06327 43.5242 5.06327 45.0143H5.31327ZM5.81132 41.7887L6.04709 41.8719C7.2812 38.3714 10.4862 35.9106 14.1544 35.6337L14.1355 35.3844L14.1167 35.1351C10.2493 35.4271 6.87506 38.0196 5.57554 41.7056L5.81132 41.7887ZM16.1394 36.5153L16.1775 36.2682C13.5393 35.8618 10.8184 36.7409 8.85111 38.6084L9.02323 38.7897L9.19535 38.971C11.0541 37.2065 13.621 36.3803 16.1014 36.7624L16.1394 36.5153ZM9.02323 38.7897L8.85048 38.609C7.49517 39.9045 6.65619 41.4107 6.25812 43.2947L6.50272 43.3463L6.74732 43.398C7.12486 41.6112 7.91449 40.1954 9.19598 38.9704L9.02323 38.7897ZM6.50272 43.3463L6.25846 43.2931C6.06372 44.1862 6.05031 45.6879 6.21809 46.567L6.46366 46.5202L6.70923 46.4733C6.55386 45.6592 6.56687 44.2256 6.74698 43.3996L6.50272 43.3463ZM6.46366 46.5202L6.21846 46.5689C6.856 49.7763 9.08283 52.3381 12.1361 53.3627L12.2156 53.1256L12.2951 52.8886C9.41572 51.9224 7.31226 49.507 6.70886 46.4714L6.46366 46.5202ZM12.2156 53.1256L12.136 53.3626C13.0677 53.6754 13.858 53.8014 14.8855 53.8014V53.5514V53.3014C13.9095 53.3014 13.1732 53.1834 12.2952 52.8886L12.2156 53.1256ZM14.8855 53.5514L14.8855 53.8014C15.9182 53.8014 16.7466 53.6757 17.6853 53.3628L17.6062 53.1256L17.5272 52.8885C16.6436 53.183 15.869 53.3014 14.8855 53.3014L14.8855 53.5514ZM17.6062 53.1256L17.6853 53.3628C20.7392 52.3448 22.9659 49.7826 23.6034 46.5688L23.3582 46.5202L23.113 46.4715C22.5095 49.5137 20.4062 51.9288 17.5272 52.8885L17.6062 53.1256ZM23.3582 46.5202L23.6037 46.5674C23.7716 45.6943 23.7581 44.1929 23.5634 43.2999L23.3191 43.3532L23.0749 43.4064C23.255 44.2326 23.2679 45.6656 23.1127 46.473L23.3582 46.5202ZM23.3191 43.3532L23.5639 43.3021C23.4053 42.5423 23.109 41.6485 22.8132 41.0568L22.5896 41.1686L22.366 41.2804C22.6389 41.8263 22.9228 42.6777 23.0744 43.4043L23.3191 43.3532ZM22.5896 41.1686L22.8132 41.0568C22.2325 39.8954 21.1126 38.5908 20.0518 37.8369L19.907 38.0407L19.7622 38.2445C20.7566 38.9512 21.8222 40.1927 22.366 41.2804L22.5896 41.1686ZM19.907 38.0407L20.0522 37.8372C18.9152 37.0259 17.5534 36.4743 16.1765 36.268L16.1394 36.5153L16.1024 36.7625C17.401 36.9571 18.6887 37.4786 19.7618 38.2442L19.907 38.0407ZM14.5818 39.1911L14.7379 39.3863C14.8391 39.3054 14.9831 39.3023 15.0948 39.3888L15.2478 39.1911L15.4009 38.9934C15.1119 38.7697 14.7123 38.7667 14.4257 38.9958L14.5818 39.1911ZM15.2478 39.1911L15.0849 39.3807C15.0715 39.3691 15.0722 39.366 15.0909 39.3922C15.1057 39.4129 15.1257 39.4432 15.1508 39.4838C15.2008 39.5647 15.2656 39.6775 15.3423 39.8185C15.4955 40.0999 15.692 40.4854 15.9071 40.9347L16.1326 40.8268L16.3581 40.7189C16.1403 40.2637 15.9398 39.8703 15.7815 39.5794C15.7025 39.4343 15.6328 39.3126 15.5761 39.2209C15.5478 39.1751 15.5213 39.1345 15.4974 39.1011C15.4773 39.073 15.4469 39.0325 15.4108 39.0015L15.2478 39.1911ZM16.1326 40.8268L15.9075 40.9356L16.638 42.4473L16.8631 42.3385L17.0882 42.2298L16.3577 40.718L16.1326 40.8268ZM16.8631 42.3385L16.831 42.5865L18.4853 42.8003L18.5174 42.5524L18.5494 42.3045L16.8951 42.0906L16.8631 42.3385ZM18.5174 42.5524L18.4859 42.8004C18.9428 42.8583 19.3733 42.9194 19.6999 42.9715C19.8634 42.9975 19.9992 43.021 20.0985 43.0405C20.1483 43.0503 20.1867 43.0587 20.2139 43.0654C20.2498 43.0743 20.246 43.0756 20.2288 43.067L20.3406 42.8434L20.4524 42.6198C20.4126 42.5999 20.3635 42.5873 20.334 42.58C20.2956 42.5705 20.2484 42.5604 20.1948 42.5499C20.0871 42.5288 19.9448 42.5042 19.7786 42.4777C19.4456 42.4246 19.0097 42.3628 18.5488 42.3044L18.5174 42.5524ZM20.3406 42.8434L20.2342 43.0697C20.2743 43.0885 20.3251 43.1367 20.3606 43.2096C20.3964 43.2832 20.3992 43.3459 20.3904 43.3783L20.6316 43.444L20.8728 43.5097C20.9221 43.329 20.8827 43.1399 20.8101 42.9908C20.7372 42.8409 20.6135 42.6955 20.447 42.6172L20.3406 42.8434ZM20.6316 43.444L20.3865 43.395C20.3898 43.3783 20.3943 43.3665 20.3964 43.3611C20.3988 43.3551 20.4007 43.3515 20.4011 43.3508C20.4017 43.3497 20.4 43.3529 20.3942 43.3615C20.3826 43.3787 20.3629 43.4049 20.3335 43.4409C20.2752 43.5123 20.1892 43.6095 20.0784 43.7286C19.8575 43.9661 19.5472 44.2813 19.1838 44.635L19.3582 44.8141L19.5326 44.9933C19.8995 44.6361 20.2161 44.3147 20.4445 44.0691C20.5584 43.9467 20.6527 43.8406 20.7208 43.7571C20.7546 43.7157 20.7848 43.6765 20.8084 43.6416C20.8202 43.6242 20.8325 43.6047 20.8432 43.5843C20.8522 43.5674 20.8685 43.5344 20.8768 43.493L20.6316 43.444ZM19.3582 44.8141L19.1833 44.6355L17.9489 45.8445L18.1238 46.0231L18.2987 46.2017L19.5331 44.9927L19.3582 44.8141ZM18.1238 46.0231L17.8776 46.0662L18.149 47.617L18.3953 47.5739L18.6416 47.5308L18.3701 45.98L18.1238 46.0231ZM18.3953 47.5739L18.1487 47.615C18.2196 48.0406 18.2856 48.4544 18.3337 48.7781C18.3577 48.9401 18.3772 49.0785 18.3906 49.1841C18.3973 49.237 18.4023 49.2805 18.4056 49.3141C18.4073 49.3309 18.4084 49.3443 18.4091 49.3547C18.4095 49.3598 18.4097 49.3638 18.4098 49.3667C18.41 49.3698 18.4099 49.371 18.4099 49.3708H18.6599H18.9099C18.9099 49.3178 18.8997 49.2249 18.8866 49.1213C18.8726 49.0106 18.8525 48.8682 18.8282 48.7046C18.7796 48.3771 18.7131 47.9603 18.6419 47.5328L18.3953 47.5739ZM18.6599 49.3708L18.4099 49.3707C18.4099 49.4505 18.3772 49.5317 18.3238 49.5922C18.2696 49.6536 18.211 49.6764 18.1687 49.6764V49.9264V50.1764C18.3849 50.1764 18.5719 50.0668 18.6987 49.923C18.8263 49.7784 18.9099 49.5818 18.9099 49.3708L18.6599 49.3708ZM18.1687 49.9264L18.1689 49.6764C18.2034 49.6764 18.2186 49.6855 18.1822 49.6734C18.1587 49.6655 18.1243 49.6526 18.0786 49.6338C17.9878 49.5965 17.8642 49.5413 17.7153 49.4713C17.418 49.3318 17.0288 49.1379 16.6177 48.9227L16.5017 49.1442L16.3858 49.3657C16.8017 49.5834 17.1975 49.7806 17.5028 49.9239C17.655 49.9954 17.787 50.0546 17.8887 50.0963C17.9392 50.1171 17.9853 50.1348 18.0241 50.1477C18.0501 50.1564 18.1098 50.1764 18.1686 50.1764L18.1687 49.9264ZM16.5017 49.1442L16.6184 48.9231C16.2087 48.7069 15.8273 48.5099 15.5433 48.3664C15.4014 48.2947 15.2828 48.2359 15.1967 48.1945C15.1539 48.1739 15.1175 48.1569 15.0895 48.1445C15.0758 48.1384 15.0617 48.1324 15.0487 48.1274C15.0424 48.125 15.0338 48.1218 15.0241 48.1188C15.0199 48.1175 14.9949 48.1093 14.9634 48.1068L14.9441 48.3561L14.9249 48.6054C14.9073 48.604 14.894 48.601 14.8888 48.5998C14.8823 48.5982 14.8775 48.5968 14.8751 48.596C14.8703 48.5946 14.8679 48.5936 14.869 48.594C14.8709 48.5947 14.8765 48.597 14.8872 48.6017C14.9081 48.611 14.939 48.6254 14.9802 48.6452C15.0619 48.6844 15.1771 48.7416 15.3178 48.8127C15.5987 48.9546 15.9774 49.1502 16.3851 49.3653L16.5017 49.1442ZM14.9441 48.3561V48.1061C14.9083 48.1061 14.8799 48.114 14.8741 48.1156C14.8628 48.1186 14.8529 48.1219 14.846 48.1244C14.8318 48.1294 14.817 48.1355 14.8033 48.1413C14.7753 48.1532 14.7396 48.1695 14.6985 48.189C14.6156 48.2282 14.5021 48.2841 14.3668 48.3522C14.0957 48.4887 13.732 48.6768 13.3399 48.8841L13.4568 49.1051L13.5737 49.3261C13.9637 49.1199 14.3243 48.9334 14.5916 48.7988C14.7255 48.7314 14.8348 48.6776 14.9122 48.641C14.9513 48.6225 14.9801 48.6094 14.999 48.6014C15.0036 48.5994 15.0071 48.598 15.0097 48.5969C15.0125 48.5959 15.0135 48.5955 15.0133 48.5956C15.0131 48.5956 15.0122 48.5959 15.0108 48.5964C15.0094 48.5968 15.0068 48.5977 15.0032 48.5986C15.0023 48.5989 14.9775 48.6061 14.9441 48.6061V48.3561ZM13.4568 49.1051L13.3414 48.8834C12.9518 49.0862 12.5789 49.2761 12.2917 49.4183C12.148 49.4895 12.0268 49.5482 11.9362 49.5904C11.8343 49.6379 11.7945 49.6532 11.7961 49.6528L11.8611 49.8942L11.9262 50.1356C11.9767 50.122 12.0631 50.0829 12.1475 50.0436C12.2432 49.999 12.3683 49.9383 12.5136 49.8664C12.8045 49.7223 13.1805 49.5309 13.5723 49.3269L13.4568 49.1051ZM11.8611 49.8942L11.8005 49.6517C11.7623 49.6612 11.6886 49.6543 11.6094 49.6106C11.5288 49.5661 11.4952 49.5133 11.489 49.4892L11.2469 49.5514L11.0047 49.6137C11.0567 49.8157 11.2139 49.9634 11.3678 50.0483C11.523 50.134 11.7273 50.1853 11.9218 50.1367L11.8611 49.8942ZM11.2469 49.5514L11.4903 49.4946C11.4946 49.5128 11.4922 49.5163 11.4926 49.4855C11.4928 49.4614 11.4945 49.4269 11.4981 49.381C11.5052 49.2894 11.519 49.1637 11.5394 49.0065C11.58 48.6927 11.6457 48.2633 11.7326 47.7515L11.4861 47.7096L11.2396 47.6678C11.1521 48.1832 11.0853 48.6195 11.0435 48.9422C11.0226 49.1033 11.0077 49.2385 10.9996 49.3422C10.9956 49.3938 10.9931 49.4404 10.9926 49.48C10.9922 49.5128 10.9927 49.5625 11.0034 49.6082L11.2469 49.5514ZM11.4861 47.7096L11.7326 47.7516L12.0167 46.0836L11.7703 46.0417L11.5239 45.9997L11.2397 47.6676L11.4861 47.7096ZM11.7703 46.0417L11.9443 45.8622L10.665 44.6219L10.491 44.8014L10.317 44.9809L11.5963 46.2212L11.7703 46.0417ZM10.491 44.8014L10.6657 44.6226C10.1007 44.0706 9.79051 43.7615 9.62134 43.5691C9.53634 43.4724 9.49879 43.4182 9.48215 43.3869C9.47485 43.3732 9.47375 43.3678 9.47392 43.3685C9.47428 43.37 9.47415 43.3714 9.47423 43.3693L9.2244 43.36L8.97457 43.3508C8.9674 43.5447 9.06781 43.6967 9.24583 43.8992C9.43045 44.1092 9.75677 44.4336 10.3163 44.9802L10.491 44.8014ZM9.2244 43.36H9.4744C9.4744 43.2764 9.49918 43.2195 9.53667 43.1776C9.57651 43.133 9.64687 43.0877 9.76462 43.0607L9.70878 42.817L9.65293 42.5734C9.46046 42.6175 9.28863 42.7047 9.16384 42.8444C9.0367 42.9867 8.9744 43.1657 8.9744 43.36H9.2244ZM9.70878 42.817L9.75348 43.063C9.89046 43.0381 10.6741 42.9163 11.5014 42.8L11.4666 42.5524L11.4318 42.3048C10.605 42.4211 9.81216 42.5442 9.66408 42.5711L9.70878 42.817ZM11.4666 42.5524L11.5028 42.7998L13.0019 42.58L12.9656 42.3327L12.9294 42.0853L11.4303 42.305L11.4666 42.5524ZM12.9656 42.3327L13.1905 42.4418L13.921 40.9359L13.6961 40.8268L13.4711 40.7177L12.7407 42.2236L12.9656 42.3327ZM13.6961 40.8268L13.9219 40.934C14.1339 40.4875 14.3291 40.1005 14.4823 39.8179C14.5592 39.6762 14.624 39.5633 14.6743 39.4832C14.6996 39.4429 14.7193 39.4138 14.7337 39.3946C14.753 39.3688 14.7503 39.3776 14.7297 39.3927L14.5818 39.1911L14.434 38.9895C14.3892 39.0223 14.3539 39.0675 14.3332 39.0952C14.3075 39.1296 14.2797 39.1713 14.2507 39.2175C14.1925 39.3103 14.122 39.4335 14.0428 39.5796C13.884 39.8724 13.6848 40.2678 13.4702 40.7196L13.6961 40.8268ZM14.3357 41.9967L14.1104 41.8885C13.9536 42.2148 13.7994 42.517 13.6764 42.7402C13.6146 42.8524 13.5625 42.9413 13.523 43.0026C13.503 43.0336 13.4889 43.0533 13.4803 43.0641C13.476 43.0696 13.4758 43.0692 13.4794 43.0657C13.4795 43.0656 13.4982 43.0462 13.5323 43.0302L13.6385 43.2565L13.7447 43.4828C13.7877 43.4626 13.8172 43.4348 13.8298 43.4224C13.846 43.4065 13.8601 43.3899 13.8717 43.3753C13.895 43.346 13.9192 43.3108 13.9432 43.2735C13.9918 43.1982 14.0503 43.0978 14.1143 42.9815C14.243 42.7478 14.4016 42.4369 14.5611 42.105L14.3357 41.9967ZM13.6385 43.2565L13.5267 43.0329C13.5468 43.0228 13.5564 43.0224 13.5271 43.0298C13.5072 43.0348 13.4784 43.0413 13.4401 43.0492C13.3641 43.065 13.2593 43.0845 13.1324 43.1066C12.879 43.1506 12.5436 43.2037 12.1868 43.2552L12.2224 43.5026L12.2581 43.75C12.6187 43.6981 12.959 43.6442 13.2181 43.5992C13.3474 43.5767 13.4581 43.5561 13.5415 43.5389C13.583 43.5303 13.6199 43.5221 13.6499 43.5145C13.6705 43.5092 13.714 43.4982 13.7503 43.4801L13.6385 43.2565ZM12.2224 43.5026L12.1878 43.255L10.8958 43.4357L10.9305 43.6833L10.9651 43.9308L12.2571 43.7502L12.2224 43.5026ZM10.9305 43.6833L10.7562 43.8626L11.6869 44.7669L11.8611 44.5876L12.0353 44.4083L11.1047 43.504L10.9305 43.6833ZM11.8611 44.5876L11.6855 44.7655C11.9389 45.0156 12.1754 45.2572 12.3519 45.4451C12.4404 45.5393 12.5123 45.6184 12.5633 45.6776C12.589 45.7074 12.6076 45.7301 12.6197 45.746C12.6376 45.7694 12.629 45.762 12.6192 45.7387L12.8494 45.6413L13.0796 45.5438C13.0615 45.5009 13.0318 45.4617 13.017 45.4424C12.9965 45.4155 12.9709 45.3846 12.9422 45.3513C12.8844 45.2842 12.807 45.1992 12.7163 45.1027C12.5345 44.9092 12.2934 44.6631 12.0368 44.4097L11.8611 44.5876ZM12.8494 45.6413L12.6122 45.7203C12.6054 45.6999 12.6068 45.6909 12.6076 45.7081C12.6083 45.7211 12.6084 45.7421 12.607 45.7731C12.6043 45.8348 12.5963 45.9219 12.5822 46.0366C12.5541 46.2653 12.5034 46.5884 12.4294 47.0069L12.6756 47.0504L12.9218 47.094C12.9964 46.6723 13.0488 46.3393 13.0785 46.0976C13.0933 45.9772 13.1029 45.8756 13.1065 45.7953C13.1083 45.7553 13.1088 45.717 13.107 45.6823C13.1054 45.6518 13.1015 45.6068 13.0866 45.5622L12.8494 45.6413ZM12.6756 47.0504L12.4298 47.0049C12.3648 47.3556 12.3094 47.6778 12.2718 47.9146C12.2531 48.0328 12.2385 48.1312 12.2293 48.202C12.2248 48.2369 12.2212 48.2681 12.2192 48.2927C12.2183 48.3041 12.2173 48.3195 12.2173 48.3351C12.2173 48.3421 12.2175 48.3567 12.2199 48.3741C12.221 48.3826 12.2236 48.3987 12.2297 48.418C12.234 48.4315 12.2492 48.4776 12.2918 48.5202L12.4685 48.3434L12.6453 48.1666C12.6875 48.2088 12.7023 48.2542 12.7063 48.2668C12.7121 48.2851 12.7144 48.3 12.7154 48.307C12.7173 48.3214 12.7173 48.3319 12.7173 48.3337C12.7173 48.3391 12.717 48.3399 12.7176 48.3329C12.7186 48.3204 12.721 48.2986 12.7252 48.2662C12.7334 48.2024 12.7472 48.1093 12.7656 47.993C12.8025 47.7611 12.8571 47.4433 12.9214 47.096L12.6756 47.0504ZM12.4685 48.3434L12.3049 48.5325C12.3794 48.5969 12.4629 48.5942 12.4737 48.5941C12.4993 48.5939 12.5199 48.59 12.5295 48.5879C12.5505 48.5834 12.5694 48.5771 12.581 48.5729C12.6067 48.5638 12.637 48.5511 12.668 48.5375C12.7317 48.5094 12.8186 48.4682 12.9208 48.4182C13.1262 48.3179 13.4043 48.1773 13.7063 48.0231L13.5926 47.8004L13.4789 47.5778C13.1771 47.7319 12.9025 47.8708 12.7014 47.9689C12.6005 48.0182 12.5207 48.0559 12.4662 48.08C12.4382 48.0924 12.4215 48.099 12.4138 48.1017C12.4088 48.1035 12.4144 48.1012 12.4257 48.0988C12.4305 48.0978 12.4471 48.0943 12.4697 48.0942C12.4774 48.0941 12.5588 48.0909 12.6321 48.1544L12.4685 48.3434ZM13.5926 47.8004L13.7091 48.0216C14.008 47.8641 14.2955 47.7162 14.5176 47.6046C14.6288 47.5487 14.7228 47.5023 14.7933 47.4685C14.8287 47.4516 14.8572 47.4382 14.8786 47.4286C14.9033 47.4175 14.9101 47.4152 14.9067 47.4163L14.8269 47.1794L14.7472 46.9424C14.7096 46.955 14.6442 46.9855 14.5772 47.0177C14.5027 47.0533 14.4057 47.1013 14.2931 47.1578C14.0678 47.2711 13.7774 47.4205 13.476 47.5793L13.5926 47.8004ZM14.8269 47.1794L14.8876 47.4219C14.844 47.4328 14.8289 47.4186 14.8885 47.4354C14.9351 47.4485 15.0057 47.474 15.1082 47.5177C15.3121 47.6045 15.6158 47.7513 16.0579 47.9772L16.1717 47.7545L16.2854 47.5319C15.8422 47.3055 15.5252 47.1518 15.304 47.0576C15.1939 47.0107 15.1007 46.9757 15.0239 46.9541C14.96 46.9361 14.8616 46.913 14.7663 46.9368L14.8269 47.1794ZM16.1717 47.7545L16.0557 47.976C16.403 48.1578 16.7059 48.3071 16.9245 48.4053C17.0325 48.4538 17.1259 48.4926 17.1957 48.5164C17.2278 48.5272 17.2691 48.54 17.3093 48.5455C17.3252 48.5476 17.37 48.5533 17.4218 48.5403C17.45 48.5332 17.4973 48.5163 17.5404 48.474C17.5888 48.4265 17.6135 48.365 17.6166 48.3048L17.367 48.2917L17.1173 48.2785C17.1203 48.2214 17.1439 48.1625 17.1901 48.1171C17.2312 48.0768 17.2754 48.0615 17.2996 48.0554C17.3434 48.0444 17.3765 48.05 17.377 48.0501C17.3865 48.0514 17.3827 48.0518 17.3565 48.0429C17.3097 48.027 17.2337 47.9961 17.1295 47.9492C16.9235 47.8566 16.6301 47.7123 16.2876 47.533L16.1717 47.7545ZM17.367 48.2917H17.617C17.617 48.2672 17.6131 48.2369 17.6113 48.2218C17.6085 48.1994 17.6045 48.1707 17.5996 48.1372C17.5898 48.0699 17.5757 47.9791 17.5583 47.8717C17.5234 47.6566 17.4748 47.3721 17.4195 47.0699L17.1736 47.1149L16.9277 47.1599C16.9823 47.4587 17.0304 47.74 17.0647 47.9517C17.0819 48.0577 17.0956 48.1456 17.1048 48.2093C17.1095 48.2413 17.1129 48.2661 17.1151 48.2837C17.1182 48.3086 17.117 48.3048 17.117 48.2917H17.367ZM17.1736 47.1149L17.4201 47.0729C17.3685 46.7702 17.3202 46.473 17.2849 46.237C17.2672 46.1188 17.253 46.0171 17.2432 45.9382C17.2383 45.8987 17.2347 45.866 17.2323 45.8405C17.2311 45.8277 17.2303 45.8175 17.2299 45.8095C17.2296 45.8056 17.2295 45.8025 17.2294 45.8002C17.2293 45.799 17.2293 45.7981 17.2293 45.7975C17.2293 45.7972 17.2293 45.7969 17.2293 45.7968C17.2293 45.7966 17.2293 45.7965 17.2293 45.7965H16.9793H16.7293C16.7293 45.8813 16.7562 46.0819 16.7904 46.311C16.8264 46.5515 16.8753 46.8521 16.9272 47.1568L17.1736 47.1149ZM16.9793 45.7965L17.2293 45.7965C17.2293 45.77 17.2316 45.7615 17.2369 45.7492C17.2454 45.7296 17.267 45.6917 17.3276 45.6194C17.4512 45.472 17.6852 45.2403 18.1352 44.8066L17.9617 44.6266L17.7882 44.4466C17.3464 44.8725 17.0892 45.1256 16.9445 45.2982C16.871 45.3858 16.8142 45.4668 16.7779 45.551C16.7383 45.6426 16.7293 45.7229 16.7293 45.7965L16.9793 45.7965ZM17.9617 44.6266L18.1349 44.8069L19.1173 43.8636L18.9441 43.6833L18.771 43.5029L17.7886 44.4463L17.9617 44.6266ZM18.9441 43.6833L18.9788 43.4357L17.6868 43.255L17.6521 43.5026L17.6175 43.7502L18.9095 43.9308L18.9441 43.6833ZM17.6521 43.5026L17.6859 43.2549C17.334 43.2069 17.0008 43.1526 16.7467 43.1034C16.6194 43.0788 16.5146 43.056 16.4384 43.0365C16.4 43.0267 16.372 43.0185 16.3534 43.0122C16.3271 43.0033 16.3378 43.0042 16.3589 43.0187L16.2166 43.2243L16.0743 43.4298C16.1163 43.4589 16.1654 43.4764 16.193 43.4857C16.2283 43.4977 16.2697 43.5094 16.3144 43.5209C16.4041 43.5438 16.5197 43.5688 16.6518 43.5943C16.9168 43.6456 17.2593 43.7013 17.6184 43.7503L17.6521 43.5026ZM16.2166 43.2243L16.3417 43.0078C16.3686 43.0234 16.3768 43.0371 16.3629 43.021C16.3536 43.0102 16.3391 42.9916 16.3193 42.9632C16.2799 42.9066 16.2287 42.8245 16.1668 42.7177C16.0436 42.505 15.8863 42.2082 15.7101 41.8525L15.4861 41.9635L15.2621 42.0745C15.441 42.4356 15.6036 42.7429 15.7342 42.9683C15.7992 43.0806 15.8583 43.176 15.9089 43.2487C15.9341 43.2849 15.9595 43.3189 15.9845 43.3479C16.0049 43.3715 16.0419 43.4121 16.0915 43.4407L16.2166 43.2243ZM15.4861 41.9635L15.7102 41.8527L15.135 40.6896L14.9109 40.8004L14.6868 40.9113L15.262 42.0744L15.4861 41.9635ZM14.9109 40.8004L14.6856 40.6921L14.1104 41.8884L14.3357 41.9967L14.561 42.1051L15.1362 40.9088L14.9109 40.8004Z" fill="var(--stroke-0, #A6C4F7)"/>
</g>
<g id="Black_2">
<path id="Vector_2" d="M203.011 149.04C201.95 148.856 201.192 148.843 200.063 148.989C196.882 149.388 194.214 151.15 192.398 154.054C192.092 154.554 191.857 155.062 191.475 156.11C191.026 157.316 190.946 157.631 190.834 158.473C190.571 160.612 190.751 162.176 191.498 164.24C191.701 164.805 191.84 165.27 191.818 165.281C191.672 165.351 191.301 166.125 191.21 166.543C190.914 167.978 191.726 169.893 192.898 170.522C193.223 170.71 193.231 170.713 193.162 171.167C192.936 172.59 193.745 174.389 194.892 175.008C195.212 175.185 195.222 175.208 195.143 175.543C194.939 176.437 195.337 177.91 196.008 178.746C196.179 178.953 196.494 179.243 196.714 179.392C197.165 179.685 197.213 179.78 197.093 180.1C196.955 180.471 197.111 181.556 197.402 182.231C197.798 183.166 198.345 183.744 199.141 184.098C200.12 184.53 200.242 184.498 203.083 183.061C204.418 182.387 205.587 181.766 205.681 181.686C205.781 181.589 205.923 181.555 206.036 181.597C206.342 181.711 207.363 181.535 207.802 181.295C208.471 180.929 208.936 180.421 209.238 179.756L209.497 179.161L210.05 179.329C211.493 179.77 213.07 179.014 213.731 177.561L213.97 177.016L214.437 177.171C215.629 177.547 217.083 177.071 217.815 176.067C217.985 175.833 218.33 175.597 219.124 175.192C221.647 173.894 223.305 172.131 224.416 169.569C225.665 166.684 225.665 163.574 224.411 160.726C223.885 159.522 223.465 158.876 222.586 157.905C219.788 154.809 215.411 153.783 211.507 155.286L210.942 155.498L210.572 154.765C209.638 152.881 208.243 151.373 206.467 150.318C205.664 149.836 203.934 149.202 203.011 149.04ZM205.751 151.674C207.228 152.569 208.444 153.915 209.328 155.636L209.558 156.106L208.404 156.713C207.764 157.05 206.58 157.637 205.773 158.027C204.97 158.41 204.171 158.852 204.016 158.995C203.621 159.367 203.356 160.103 203.401 160.696C203.46 161.428 204.096 162.308 204.978 162.877C205.52 163.223 206.586 163.543 207.221 163.539C207.506 163.54 208.777 163.332 210.049 163.076L212.359 162.621L214.698 168.033C216.226 171.578 217.038 173.589 217.058 173.856C217.117 174.588 216.671 175.315 215.978 175.623C215.385 175.882 214.658 175.736 214.164 175.264C213.996 175.096 213.216 173.394 211.744 169.995C209.769 165.429 209.543 164.951 209.309 164.864C208.938 164.726 208.528 164.938 208.374 165.351C208.261 165.655 208.337 165.846 210.415 170.7C211.6 173.465 212.588 175.868 212.604 176.047C212.633 176.413 212.432 177.029 212.174 177.326C211.941 177.605 211.344 177.901 210.976 177.927C210.57 177.958 209.976 177.727 209.724 177.441C209.607 177.311 208.54 174.946 207.344 172.187C205.244 167.344 205.157 167.158 204.866 167.05C204.471 166.902 204.051 167.092 203.907 167.479C203.816 167.724 204.008 168.218 205.972 172.789C207.486 176.32 208.135 177.934 208.139 178.195C208.162 178.971 207.753 179.625 207.077 179.911C206.845 180.017 206.617 180.085 206.585 180.073C206.552 180.061 206.514 179.769 206.495 179.426C206.459 178.241 205.726 176.902 204.833 176.34C204.408 176.076 204.403 176.064 204.479 175.737C204.781 174.458 203.998 172.611 202.852 171.867L202.483 171.624L202.542 171.022C202.689 169.589 202.02 168.13 200.849 167.377C200.488 167.137 200.475 167.123 200.557 166.779C200.785 165.798 200.298 164.244 199.484 163.394C199.096 162.981 198.951 162.878 198.394 162.671C197.861 162.473 197.679 162.443 197.35 162.513C197.132 162.556 196.12 163.005 195.098 163.527L193.245 164.459L193.025 163.964C191.623 160.821 192.09 156.829 194.167 154.089C195.125 152.823 196.116 152.012 197.562 151.312C199.173 150.539 200.787 150.276 202.508 150.514C203.405 150.646 204.948 151.192 205.751 151.674ZM219.008 157.052C222.331 158.761 224.211 162.398 223.799 166.315C223.716 167.081 223.633 167.377 223.221 168.509C222.674 169.976 222.255 170.684 221.29 171.745C220.767 172.309 219.683 173.173 218.96 173.585L218.563 173.812L218.533 173.474C218.52 173.287 217.461 170.703 216.183 167.722C214.72 164.297 213.914 162.317 213.996 162.319C214.062 162.315 214.271 162.248 214.455 162.173C214.715 162.068 214.818 161.962 214.909 161.718C215.05 161.339 214.861 160.884 214.514 160.755C214.377 160.704 213.106 160.912 211.072 161.316C207.421 162.04 207.011 162.079 206.363 161.847C205.475 161.516 204.666 160.581 204.931 160.191C204.99 160.107 206.634 159.27 208.584 158.325C212.433 156.476 213.268 156.182 214.743 156.146C216.404 156.102 217.691 156.37 219.008 157.052ZM198.365 164.475C198.964 165.111 199.263 166.134 199.031 166.758C198.927 167.036 198.758 167.146 196.649 168.194C195.404 168.825 194.273 169.344 194.133 169.35C193.334 169.398 192.378 167.65 192.691 166.71C192.816 166.325 193.134 166.136 195.698 164.902C197.149 164.214 197.69 163.993 197.844 164.05C197.948 164.089 198.188 164.284 198.365 164.475ZM200.311 168.895C200.71 169.303 201.007 169.961 201.053 170.554C201.143 171.471 201.198 171.424 198.535 172.727C196.257 173.837 196.14 173.879 195.849 173.771C195.075 173.483 194.448 172.155 194.646 171.23L194.724 170.847L197.182 169.65C199.849 168.359 199.8 168.369 200.311 168.895ZM202.246 173.321C202.921 173.976 203.291 175.448 202.899 175.907C202.836 175.98 201.735 176.568 200.451 177.203C198.275 178.284 198.102 178.354 197.828 178.252C197.005 177.946 196.346 176.433 196.663 175.582C196.764 175.312 196.975 175.189 199.17 174.106C201.763 172.815 201.733 172.823 202.246 173.321ZM204.317 177.923C204.673 178.325 205.021 179.165 205.037 179.641C205.052 180.415 205.052 180.415 202.46 181.676C199.811 182.965 199.831 182.963 199.24 182.33C198.66 181.691 198.346 180.288 198.706 179.865C198.787 179.771 199.907 179.18 201.199 178.548C203.811 177.284 203.753 177.291 204.317 177.923Z" fill="var(--fill-0, #ABC7F8)"/>
</g>
</g>
</svg>
